<svg xmlns="http://www.w3.org/2000/svg" height="305" width="1220" version="1"><path d="M198 26C74 36 9 118 12 165c4 48 68 143 205 126 135-18 155-131 150-184-4-49-46-92-169-81zm-1-12c126-12 177 34 182 92 5 55-16 178-161 196C75 321 4 221 0 166-4 110 70 25 197 14" fill="#7477a0"/><path d="M217 17C123 26 79 75 57 139c-26 75 87 139 196 136 103-4 196-142 175-205C408 7 316 7 217 17zm-1-12C310-5 416-8 440 66c23 72-77 217-187 220-105 4-239-60-207-151C69 68 117 15 216 5" fill="#f9ab0c"/><path d="M163 55C-47 163 61 336 279 264c125-41 134-141 115-187-17-43-140-68-231-22zm-5-10c91-47 225-26 247 28 21 52 10 159-122 203C50 352-65 158 158 45" fill="#9faa4d"/><path d="M215 41C10 82 67 305 258 272c53-9 102-72 88-153-14-79-71-90-131-78zm-2-12c62-12 129-1 145 88 14 87-37 156-98 167C53 320-8 74 213 29" fill="#212d54"/><path d="M513 238c0 7-5 13-13 13h-7v-25h6c11 0 14 6 14 12zm16 48c-11-17-19-30-21-31 7-2 13-8 13-18s-6-18-22-18h-13v67h7v-29h7c3 1 9 12 20 29h9M562 257h-22c0-8 4-14 11-14 8 0 11 7 11 14zm8 6v-2c0-14-6-24-19-24-11 0-19 10-19 24s7 26 22 26c6 0 12-2 15-5l-2-5c-3 2-7 3-11 3-11 0-16-8-16-17h30" fill="#56533d" fill-rule="evenodd"/><path d="M609 273c0-16-22-13-22-24 0-4 4-6 8-6 5 0 9 1 12 3v-7l-12-2c-11 0-16 6-16 12 0 17 22 13 22 25 0 4-4 7-10 7-5 0-10-2-12-4l-3 6c4 2 8 4 15 4 9 0 18-4 18-14" fill="#56533d"/><path d="M647 257h-23c0-8 5-14 12-14s11 7 11 14zm8 6v-2c0-14-7-24-19-24s-20 10-20 24 7 26 22 26c6 0 12-2 15-5l-2-5c-3 2-7 3-11 3-11 0-16-8-16-17h31M692 275c-3 2-6 5-13 5-6 0-9-3-9-8 0-6 4-9 12-9h10zm8 11l-1-18v-15c0-12-7-16-16-16-6 0-11 1-17 5l3 6c2-2 6-5 12-5s11 3 11 11v2l-10 1c-13 0-19 6-19 15s7 15 14 15c8 0 12-3 15-6l2 5h6" fill="#56533d" fill-rule="evenodd"/><path d="M737 238l-5-1c-3 0-7 0-13 6l-1-5h-6v48h7v-36c3-3 8-5 11-5h4l3-7" fill="#56533d"/><path d="M776 282l-2-5c-3 2-7 3-12 3-10 0-16-7-16-18s6-19 16-19c5 0 10 2 13 4v-7c-4-2-8-3-13-3-15 0-23 12-23 25s7 25 22 25c6 0 12-3 15-5" fill="#56533d" fill-rule="evenodd"/><path d="M823 286v-32c0-13-7-17-14-17s-11 3-17 7v-30h-7v72h7v-35c4-3 9-7 15-7 7 0 8 6 8 12v30h8M910 282l-2-6c-5 2-10 4-16 4-16 0-25-11-25-27s10-28 25-28c8 0 12 2 17 6v-8c-3-2-9-4-17-4-19 0-33 15-33 34 0 20 12 34 32 34 6 0 13-2 19-5" fill="#56533d"/><path d="M950 262c0 11-6 18-15 18s-14-7-14-18c0-12 5-19 14-19s15 7 15 19zm7 0c0-8-2-15-7-19-4-4-9-6-15-6s-11 2-15 6-6 11-6 19 2 15 6 19 9 6 15 6 11-2 15-6c5-5 7-11 7-19" fill="#56533d" fill-rule="evenodd"/><path d="M1005 286l-1-20v-28h-7v36c-2 3-7 6-13 6s-9-3-9-11v-31h-7v32c0 13 8 17 14 17s12-3 16-6l2 5h5M1056 286v-32c0-12-6-17-13-17s-12 3-17 7l-1-6h-6v48h7v-35c4-3 9-7 15-7 7 0 8 6 8 12v30h7" fill="#56533d"/><path d="M1104 282l-2-5c-3 2-7 3-12 3-10 0-16-7-16-18s6-19 16-19c6 0 10 2 13 4v-7c-3-2-8-3-12-3-16 0-24 12-24 25s8 25 22 25c6 0 12-3 15-5M1121 286v-48h-8v48h8zm1-63c0-3-2-5-5-5s-5 2-5 5 2 5 5 5 5-2 5-5" fill="#56533d" fill-rule="evenodd"/><path d="M1150 285l-1-5h-2c-3 0-4-1-4-5v-61h-8v64c0 5 3 9 9 9l6-2" fill="#56533d"/><path d="M517 160h-22l9-22 2-8 3 8 8 22zm17 25l-26-67h-4l-25 67h7l7-18h26l7 18h8" fill="#56533d" fill-rule="evenodd"/><path d="M568 137l-5-1c-4 0-7 0-14 6l-1-5h-6v48h8v-36c3-3 7-5 10-5h5l3-7M601 181l-2-5c-2 1-5 3-8 3-4 0-5-2-5-6v-30h12l3-6h-15v-13l-7 2v11h-8v6h8v33c0 6 3 10 10 10 4 0 9-2 12-5M637 172c0-16-22-13-22-24 0-4 4-6 9-6s9 1 12 3v-7l-12-2c-11 0-16 6-16 12 0 17 22 13 22 25 0 4-4 7-10 7s-10-2-12-4l-3 6c3 2 7 4 14 4 10 0 18-4 18-14" fill="#56533d"/><path d="M710 173c-5 4-12 6-17 6-8 0-13-5-13-12 0-6 2-11 11-14l19 20zm-6-40c0 4-4 9-11 12-5-6-7-9-7-13s3-8 9-8c7 0 9 5 9 9zm32 51l-1-4c-5 1-10-3-15-8 7-7 11-14 12-18l-7-2c-1 4-5 11-10 16l-18-18c9-5 14-10 14-18 0-9-6-15-16-15s-16 7-16 15c0 6 3 10 8 16-10 4-15 9-15 19s7 19 19 19c10 0 18-4 24-9 5 4 10 8 16 8l5-1" fill="#56533d" fill-rule="evenodd"/><path d="M823 185v-67h-8v30h-36v-30h-8v67h8v-31h36v31h8M874 185l-1-20v-28h-8v36c-2 3-6 6-12 6s-10-3-10-11v-31h-7v32c0 13 8 17 15 17 6 0 12-3 15-6l2 5h6M955 185v-34c0-12-7-15-14-15-6 0-13 3-18 8-2-5-6-8-12-8-5 0-10 2-17 7l-1-6h-6v48h7v-35c4-4 9-8 15-8 7 0 8 5 8 11v32h8v-32l-1-3c4-4 9-8 16-8 6 0 7 5 7 11v32h8" fill="#56533d"/><path d="M994 174c-2 2-6 5-12 5s-9-4-9-8c0-6 3-9 12-9h9zm9 11l-1-19v-14c0-12-8-16-17-16-6 0-11 1-17 5l3 6c3-2 7-5 13-5s10 3 10 11v2l-10 1c-12 0-19 6-19 15s7 15 15 15c7 0 12-3 15-6l2 5h6" fill="#56533d" fill-rule="evenodd"/><path d="M1052 185v-32c0-12-7-17-14-17-6 0-11 2-17 7l-1-6h-6v48h8v-35c3-3 9-7 15-7 7 0 8 6 8 12v30h7" fill="#56533d"/><path d="M1074 185v-48h-7v48h7zm1-63a5 5 0 0 0-10 0c0 3 2 5 5 5s5-2 5-5" fill="#56533d" fill-rule="evenodd"/><path d="M1115 181l-3-5c-2 1-5 3-8 3s-5-2-5-6v-30h12l3-6h-15v-13l-7 2v11h-8v6h8v33c0 6 3 10 10 10 4 0 9-2 13-5" fill="#56533d"/><path d="M1132 185v-48h-8v48h8zm1-63c0-3-2-5-5-5a5 5 0 0 0 0 10c3 0 5-2 5-5M1174 156h-22c0-8 4-14 11-14 8 0 11 7 11 14zm8 6v-2c0-14-7-24-19-24-11 0-19 10-19 24s7 26 22 26c6 0 12-2 15-5l-2-5c-3 2-7 3-12 3-10 0-15-8-15-17h30" fill="#56533d" fill-rule="evenodd"/><path d="M1220 172c0-16-22-13-22-24 0-4 4-6 9-6s9 1 12 3v-7l-12-2c-11 0-16 6-16 12 0 17 22 13 22 25 0 4-5 7-10 7-6 0-10-2-12-4l-3 6c3 2 7 4 14 4 10 0 18-4 18-14" fill="#56533d"/></svg>
