<svg xmlns="http://www.w3.org/2000/svg" height="123" width="526" version="1"><defs><clipPath id="a"><path d="M0 8424V0h5958v8424z"/></clipPath></defs><g clip-path="url(#a)" transform="matrix(.13333 0 0 -.13333 -114 628)"><path d="M2636 4099c-23 43-35 81-84 83 51 7 76 31 76 65 0 51-48 63-87 63h-123v-5h3c34 0 35-25 35-90v-76c0-66-1-90-35-90h-3v-5h118v5h-2c-35 0-36 25-36 94v32h17c30 0 38-6 56-38 10-18 21-54 48-93l67-1v6c-19 1-32 18-50 50zm-138 89v110h20c43 0 63-15 63-58 0-38-21-52-65-52h-18M3472 4488c-23 42-35 81-84 82 52 7 77 32 77 65 0 51-49 63-88 63h-123v-5h3c34 0 35-24 35-89v-77c0-66-1-90-35-90h-3v-5h119v5h-3c-35 0-36 25-36 94v33h17c30-1 38-7 56-39 10-18 22-54 47-93h73v5h-1c-23 0-35 17-54 51zm-138 88v110h21c42 0 63-14 63-58 0-37-22-52-66-52h-18M3721 4172c31-1 41-12 41-39v-31c0-35-22-53-58-53-53 0-91 45-91 122 0 86 37 133 88 133 44 0 81-29 87-80h6v85h-6c-3-5-7-9-11-9-15 0-39 16-76 16-78 0-138-59-138-144 0-76 52-135 129-135 32 0 57 8 83 21 9 4 18 8 27 6l-1 31v31c0 35 3 43 39 46v5h-119v-5M3635 4426c56 0 90 35 90 80 0 56-41 68-85 90-33 16-55 29-55 56 0 22 22 39 47 39 37 0 65-25 72-69h5v78h-5c-2-7-4-11-10-11-12 0-27 14-64 14-42 0-81-31-81-71 0-47 30-61 80-85 35-16 56-30 56-60s-20-49-55-49c-46 0-71 30-81 81h-5v-87h6c1 7 5 11 11 11 13 0 30-17 74-17M3136 4444c-53 0-57 4-57 68v52c47-1 62-9 65-49h5v105h-5c-1-37-17-44-65-45v111h39c50 0 73-8 82-52h6l-3 64h-204v-5h3c35 0 35-24 35-89v-77c0-66 0-90-35-90h-3v-5h223l3 80h-6c-7-51-30-68-83-68M3432 4304c33 0 40-21 40-71v-116l-155 193h-73v-6c34 0 38-22 38-68v-116c0-50-7-70-39-71v-5h93v5c-33 1-40 21-40 71v143l178-222h12v192c0 50 7 71 39 71v6h-93v-6M3082 4304h4c34 0 34-24 34-89v-76c0-66 0-90-34-90h-4v-5h119v5h-3c-35 0-35 25-35 93v69c0 68 0 93 35 93h3v6h-119v-6M4039 4305h3c34 0 35-25 35-90v-25h-134v21c0 68 1 94 37 94h2v5h-118v-5h3c34 0 35-25 35-90v-76c0-66-1-90-35-90h-3v-5h118v5h-2c-36 0-37 25-37 94v34h134v-38c0-66-1-90-35-90h-3v-5h118v5h-3c-34 0-35 24-35 90v76c0 65 1 90 35 90h3v5h-118v-5M4790 4304h4v6h-78l-87-202-81 202h-84v-5c20-1 30-4 33-13 4-9 6-38 6-86v-86c0-49-6-70-40-71v-6l98 1v5c-39 2-45 21-45 71v154l92-230h7l98 227v-129c0-68 0-93-38-93v-5h119v5h-4c-35 0-35 25-35 94v68c0 68 0 93 35 93M4534 4654l13-1v7c-4 2-13 2-15 2-51 0-80-34-80-76 0-52 35-83 88-83s93 43 93 99c0 58-45 102-116 102-112 0-184-88-215-141l-52 91c-4 8-6 18-6 22 0 12 8 16 28 17v5h-108v-5c20-1 28-19 43-45l59-104v-36c0-52-4-71-35-71h-3v-5h119v5h-3c-31 0-35 19-35 71v42c27 45 100 140 203 140 52 0 86-26 86-90 0-60-24-89-58-89-36 0-55 28-55 75 0 44 26 68 49 68M2351 4437c-33 1-40 22-40 71v144l178-223h11v192c0 50 8 71 40 72v5h-93v-5c32-1 39-22 39-72v-115l-154 192h-74v-5c35-1 39-23 39-69v-116c0-49-7-70-40-71v-5h94v5M3891 4437h-3c-36 0-36 25-36 94v68c0 69 0 94 35 94h4v5h-119v-5h4c34 0 34-24 34-89v-77c0-66 0-90-34-90h-4v-5h119v5M4736 4515h-3c-30 0-30 14-30 66v22c31-1 37-7 39-34h5v74h-5c-1-25-7-30-39-31v76h20c35 0 50-5 57-34h6l-2 44h-139v-6h2c24 0 25-15 25-61v-56c0-46-1-60-25-60h-2v-7h91v7M2754 4647l84-221h9l75 194c17 44 31 68 60 73v5h-95v-5c22-1 31-8 31-28 0-11-4-30-13-54l-46-115-57 144c-6 17-7 28-7 30 0 15 10 21 31 23v5h-116v-5c24-1 32-16 44-46M3990 4686h20v-159c0-66-1-90-35-90h-4v-5h121v5h-3c-34 0-35 24-35 90v159h20c48 0 59-13 69-65h5v77h-232v-77h6c10 52 21 65 68 65M2145 4693c33-1 39-22 39-71v-87c0-7 1-23-1-32-5-34-27-60-68-60-50 0-66 27-71 56-3 11-2 23-2 32v73c0 65 0 89 35 89h3v5h-119v-5h3c35 0 36-25 36-94v-68c0-38 6-58 22-76 17-18 50-30 78-30 70 0 94 39 98 78l1 34v85c0 49 7 70 40 71v5h-94v-5M2572 4693h3c34 0 34-24 34-89v-77c0-66 0-90-34-90h-3v-5h119v5h-4c-35 0-35 25-35 94v68c0 69 0 94 35 94h4v5h-119v-5M2107 4186c46 10 66 34 66 62 0 41-35 62-87 62h-124v-5h3c35 0 35-25 35-90v-76c0-66 0-90-35-90h-3v-6h121c29 0 51 0 73 11 23 10 40 34 40 61 0 39-30 70-89 71zm-45 112c43 0 65-16 65-55s-23-54-67-55h-18v110zm19-242c-35 0-39 12-39 62v57h36c44 0 72-16 72-59 0-42-23-60-69-60M2248 4305h3c34 0 34-25 34-90v-76c0-66 0-90-34-90h-3v-5h119v5h-4c-35 0-35 25-35 94v68c0 68 0 94 35 94h4v5h-119v-5M2868 4110l-82 200h-84v-5c20-1 30-4 33-13 4-9 6-38 6-86v-86c0-49-6-70-40-71v-6l98 1v5c-39 2-45 21-45 71v154l92-229h7l98 226v-129c0-68 0-93-38-93v-5h119v5h-4c-35 0-35 25-35 94v68c0 68 0 93 35 93h4v6h-77l-87-200M4396 4116l-81 200h-9l-73-180c-19-45-35-85-63-87v-5h91v5c-19 2-33 11-33 28 1 11 8 29 18 53l4 11h88l15-37c5-16 9-26 9-34-1-13-12-19-34-21v-5h118l1 5c-26 1-39 35-51 67zm-141 38l40 97 38-97h-78M856 4079c21-224 365-215 377-294 13 79 356 70 378 294l-378 262-377-262" fill="#231f20"/><path d="M1233 4704H855v-603l1-22 377 262v363" fill="#ee2722"/><path d="M1612 4704h-379v-363l378-262 1 22v603" fill="#5a8fd2"/><path d="M855 4704v-603l1-22c21-224 365-215 377-294 13 79 356 70 378 294l1 22v603z" fill="none" stroke="#231f20" stroke-width="5" stroke-miterlimit="1"/><path d="M1611 4079l-378 262-377-262" fill="none" stroke="#231f20" stroke-width="5" stroke-miterlimit="1"/><path d="M856 4079l377 262v363h-1M1233 4704v-363l378-262" fill="none" stroke="#231f20" stroke-width="5" stroke-miterlimit="1"/><path d="M1180 4606v-8l3-4 2-3c4-6 5-11 3-18h1l1 1c2 4 1 8 0 11l-2 11-1 9a16 16 0 0 0 5 12l2 1 3 2 2 1 2 1c3 2 5 3 6 6l2 6 1 6 1 5c1 4 4 7 9 9h1v-1h-1l-1-2-1-3v-1-1-5l1-3 1-3c1-4 1-7-1-11-1-4-3-6-6-8a35 35 0 0 1-4-5c-3-4-5-8-4-13l2-5 1-3h1v3c0 6 3 10 7 13l3 2-1-2-1-2v-4l2-8 3-8 1-4 1-5c2-7 1-12-2-19-5-14-14-21-29-24l-8-1-12 1a21 21 0 0 1-13-2l-2-1-1-3-1-2-1-5v-2l1-3c2-6 5-9 10-13a59 59 0 0 0 12-9l3-3 6-8 4-9 3-13 1-13a39 39 0 0 0-19-31l-6-2-6-2-3-1c-6-1-10 1-13 4l-1 1v-1l-1-1v-1l-1-2-1-1-7-2-6 3-3 2-2 3-8 9-1 1v-2-8l-1-12v-1l4 1c1 0 2-1 1-3v-1l-1-2 1-3 1-1h1l1-1h4l5 1 7 1 7-2c2-2 3-4 3-7v-4l-1-2 1-1v-1c-1-3-1-5 1-7l1-1h1l2-1h6l1-1v-1h1c1 1 2 0 1-1l-1-4c-1-2-3-3-5-3h-1c0-4 0-7 2-10l4-6v-1-1l-2-2-3-4-3-2-1-1h1v-3h1v-1-1c1-5 0-9-3-13h-2v-1c0-3-1-6-3-8h-1c0-2-2-2-2 0v4l-1 1h-1v-2l1-2v-3l-1-4-2-2c-2-2-3-2-5-2h-3v1-1l-3-1a30 30 0 0 1-3-2c-2-2-4-4-4-7h-2l-1 2v1l-1 5h-1v1h-1v1l-1-1c-1-2-3-3-6-4l-1 1h-1l-1 1v-1l-2-2-4-2-3-3-1-1-1-2v-1l-1-2v-2l-1-1h-1l-1 1v1l-1 6v6l1 6 1 1h-2l-5 2h-1l-2-1-2-1c-4-1-6-3-6-6l-1-1v-2h-1v2c-1 5-2 9 1 15v1l1 1 2 2 1 1 1 4 1 4 1 1h-1l-4-1-4-1-3-3h-1l1 3v1l1 1v3l3 5 3 5 5 2 2-1v-1l1 1c3 5 7 9 12 7 3-1 5-2 6-4l3-3 4-2 1 1v1l1 1-1 7c0 10-4 16-10 24l-4 6c-3 3-6 4-10 5l-13 4-11 7c-10 8-14 17-13 30h-1c-1-4-4-8-9-9h-7l2-3c2-5 2-9 0-14 0-3-1-4-4-6l-1-1-1-1-2-1-2-1h-1v-1l2-5-1-6-2-6-1-3-2-3-3-4-4-3c-1 0-1 0 0 0 1 5 0 8-3 11l-1 1v-2-2l-1-3v-2l-3-6c-2-4-4-5-7-7l-4-1v-1c-1-1-3 0-2 2a7 7 0 0 1-1 6v1l-1 2v-2c-2-5-6-8-11-10h-8l-2 1-2 1a7 7 0 0 0-5-3l-2-1-2-1-1-2-1-2v-2l-1-1-1 1v1l-2 3-2 4v9h-3l-3 2v1-1l-3-1h-2l-2-1-1-1-2-1-3-4h-1v-1l-1-2v3l-1 1-1 2c-2 6-1 10 2 15l-1 2 1 4 1 3v1l-1 1-1 1v-1h-3l-2-1-5-2-4-5-1 1 1 1-1 6c0 2 0 4 2 6 2 5 5 8 10 9h2l1 1v1l-1 1v1l1 3 1 3h-1l-2 1h-3l-5-1c1 3 3 4 5 6 5 3 9 4 14 3h1v-1h1l7 3 7-1 2-2 2-1v-2l1-1 1-1 1-1v-1l1-2 2-1 2-2 3-1h3l2 1 1 1 4 2 3 3c4 6 6 10 7 17l1 10-1 8v9a41 41 0 0 0 0 11l3 8c5 9 13 13 24 12l8-1 7-3c5-1 10-2 15 1l1 1 1 1h-8l-8 2-5 3-4 5-2 4-1 2-1-2v-2c-1-4-4-6-7-8-1 0-2 0-1 1 1 6-2 11-8 15v-1l-8-9-4-2h-2l-3-1v-1l-1 1v-1c-2-3-4-5-8-6h-1l-2-1v1l-1 1v-1l-4-4-5-4h-1v-1h-1-1l-2-2-2-1h-1l-1-1h-1v4l-1 1-1-2-2-4-4-4-4-1v-1h-1v2l2 4v3l-2-2-5-4-5-1-2 2-1 1v-2h-1l-1-1-2-1-1-1a13 13 0 0 0-10 4h-1l-2-2-2-2-2-2-1-2-3-4v1l-1 1-1 2v2l-1 2v5h-1l-3-1-3 1-2 1-2 2h-1l-3-1-2-1-1-1-2-1-1-2-1-4-1-1-1 3v3c0 4 0 7 2 10l1 2 2 2 1 1v1l2 1 2 2h-2-1l-1 7 1 1h-1c-2 0-3-1-3-3h-1l-1 1 1 1c1 5 4 8 8 10l3 1 1 1 2 2v1h1c3 3 6 4 10 4h2l6-1h3v-1h1l5-2 6-1 3 1h1l2 1a36 36 0 0 0 3 1l3 2 3 1 5 5 3 4 6 7 2 2-1 1-4-3-5-3h-11l-6 1h-10l-3-1h-1l1 1 1 2 1 1c3 3 5 4 9 5l4 1 5 1 2 1c3 1 5 3 7 6v1h-1l-2 1h-1l-1-1h-1v1l-9 2-4 3-5 2-4 2h-4v1l10 6v1c-7-1-12 0-17 5v2h1v1h-7l-3 2-2 2-2 2v2l-2 4h-6l-3 1-2 2h-4v1l1 1c1 3 2 5 5 7l3 1h1l-1 1v5h-1-1l-2 1-4 2-4 1h-5c0-1 0 0 0 0l1 2 2 2 6 4 5 1 2-1h2l-1 1-1 3a12 12 0 0 0 1 5l1 3c0 2-1 2-2 3l-1 1-2 1-2 1-2 1-1 1h2l2 1h2l3 1h3c4 0 8-1 10-5h2v4l1 2v1l1 1h1l-1 1-1 2-1 1c-1 1-2 2-4 1h-1l-1 1 1 1h1l2 1 3 1 5 1 4-1c3-2 5-4 6-7l7-3 1-1 1-1c3-2 4-5 4-9v-4-2-3a230 230 0 0 0-2-14v-1-1c2-3 4-4 7-5h4l4-1h4l4-2 4-3 9-2h10a18 18 0 0 0 4-2l1-1 1-1v-2l1 1a27 27 0 0 0 15 7h2l1 1v1l1 1h1v1l2 1v1l2 3c0 2-1 6-4 7h-5l-5-2a41 41 0 0 0-6-4l-1-1-8-2-4 1-3 1-1 1-3 2-2 3c-4 4-4 9-3 15l1 4a10 10 0 0 1 0 5v2h-1l1 1h-1c-4 1-7 3-11 7l-3 2-3 2-5 2a20 20 0 0 0 13 3l4-1a33 33 0 0 1 4-2h1l-1 1-1 3v6l1 5v1h-1l-1 1c-3 4-3 8-1 11l1 1v1h1l8 4h17c5 0 8 1 12 3l4 3 3 2 7 1 6 1c7 0 12 0 18 3l6 3 6 2h4l7 1 8-1v-1l-1-2-2-2-1-5v-6l1 2 4 7h1v-3l1-4v-1h1l4 2c7 1 12 2 19 1 5 0 9 1 13 3l10 5c2 2 4 2 7 3l8 1h1v-4-4l-1-1h3c3 2 6 2 9 2 2 1 2-2 1-2v-1c-4-4-3-8-2-12l1-7 1-7-2-5-1-3-1-1v-1c3-2 4-4 6-8l3-7 2-7 2-4 1-1a14 14 0 0 0 2-4l1-2 1-13h-2l-1 1c3 8-7 11-14 13l-2 1 1-2 2-2 1-9v-7c0-3 0-6 2-8l1-1 1-1a4 4 0 0 1 2-1h2l2 1v-2c-3-6-11-7-17-3l-1 1v-1l-1-8v-4c2-7 3-11 2-19h-3-1c-5 0-9 3-11 8l-1 2-1-2c0-5-2-8-6-11l-4-5-2-2v-7c1-1-1-2-1-1-4 1-6 3-7 7-2 3-2 5-1 8v1l-1-1-4-2-1-1v-1l-1-2v-3-2l6-13 7-12c3-4 4-8 6-13l4-14 1-13v-5l1 1c1 2 3 3 5 2l2-1 4-1 9-6 3-4 5-5c4-3 6-6 12-8l2-1 2-1c5-2 10-3 15 1 5 3 7 7 8 13l1 3 1 3-1 4v3c-1 4-7 18-11 23l-6 8-6 5c-5 4-9 7-12 14l-1 3-1 3a30 30 0 0 0 0 13v3l1 2c2 6 4 9 9 13 2 9 6 14 14 18l6 3 4 4 1 1 1 1v9l-2 7c-1 6-1 9 1 14l2 4 1 1" fill="#b31c18"/><path d="M1216 4612v1h1-1v-1zm-39-2v-8l2-3 3-4c4-5 5-11 3-18h1l1 2v10l-3 11-1 9 3 9 3 3 2 2 3 1 2 1 2 2c3 1 4 3 6 5l2 7v5l2 5c1 5 4 7 9 9h1-1v-1l-2-2v-2-1-2-5l1-3 1-3c1-4 1-7-1-11l-6-8-2-2-2-2c-3-5-5-8-4-14l1-4 1-4h2v3c0 6 2 10 7 14l3 1-1-2-1-2v-4l1-8 4-7 1-5 1-4c2-8 1-13-2-20-6-13-15-21-29-24h-20c-5 1-8 1-13-2h-1l-1-1-2-2v-3l-1-4v-3-2c3-7 5-10 11-13l8-6 3-4 4-3 6-8 4-9 3-13v-13a39 39 0 0 0-19-31l-5-2-6-2-4-1c-5-1-9 1-13 4v1-1l-1-1-1-1v-2l-1-1-7-2-6 3-3 3-3 3-7 8-1 1v-2-7l-1-13-1-1 1 1h3c2 0 3-1 2-2v-2l-1-1 1-4v-1h11l8 1 6-2c3-2 4-4 4-6l-1-5v-3l1-1c-1-2-1-5 1-7h1l1-1 2-1h6l1-1 2-2-1-4c-1-2-3-3-5-2h-1v-1c-1-4 0-7 1-10s2-4 5-6v-1-1l-2-2-3-3-3-3h-1v-1a18 18 0 0 0 1-3l1-1v-1c1-5 0-8-3-13h-2v-1c0-3-1-5-3-8h-1-2l-1 4v1h-1v-1a69 69 0 0 0 1-5l-2-5-2-2-5-2-2 1h-1l-2-2-2-1-1-1-5-7h-1-1v3l-2 5v1l-1 1h-1c-2-2-3-4-6-4h-1l-1 1h-1v-1l-3-2-3-1-3-3-1-2-1-1v-2l-1-2v-2l-1-1h-1l-1 2v1l-1 5v7l1 6v1l-1-1h-1l-4 2-1 1v-1l-2-1h-3c-3-2-5-4-6-7a12 12 0 0 1 0-2v-1h-1v2c-1 6-2 10 1 15v1l1 1 2 2v1l1 5 2 3 1 1h-5l-4-1c-1-1-3-2-3-4h-1v1l1 2v2l1 2v1l3 6 3 4 5 2 1-1 1-1 1 1c3 5 7 9 12 7 3 0 5-2 6-4l3-2 4-3 1 2v9c0 10-4 15-10 23l-4 6c-3 3-6 4-10 6l-13 4c-4 1-7 3-11 6-10 8-14 18-13 30h-1c-1-4-4-7-9-9h-7l2-3c2-5 2-8 0-14l-4-6-1-1-1-1-2-1h-2l-1-1 2-6-1-6-2-6-2-3-1-3-3-3-4-4h-1c1 5 1 8-2 11l-1 1v-2-1l-1-4v-2l-3-6-7-7-4-1c-1-2-3-1-3 1a7 7 0 0 1 0 6v1l-1 2-1-2c-1-5-5-7-10-9l-1-1h-3l-4 1h-2l-2 1h-1l-3-3h-3l-3-2v-2l-1-2v-2h-2v1l-3 4-1 3-1 3 1 5v1h-1-1l-2 1-2 1v1h-1l-2-2h-2l-2-1-2-1-1-1-3-3-1-1v-1l-1-1v2l-1 2-1 2c-2 5-1 10 1 14v2l1 5 1 3-2 2h-1v-1h-2l-2-1-5-2-4-4h-1v8l1 6c3 4 6 7 11 8h1l1 2v5l2 3v1h-6l-5-1c1 3 3 5 5 6 5 3 8 4 14 4l1-1v-1l1 1 7 2 6-1 3-1a7 7 0 0 0 2-3l1-2 1-2 1-1 1-1 1-2h1l2-2 3-1a7 7 0 0 1 5 1l1 1 4 2 3 3c4 6 6 10 7 17v18l-1 9a39 39 0 0 0 1 11v1l3 8c5 9 13 12 23 12l9-2 7-2c5-2 10-2 15 0l1 1 1 1h-1l-7 1-8 1-5 3-4 5-3 5v2l-1-2v-3c-2-4-4-6-8-8l-1 1c1 7-1 12-7 15v1l-1-1c-1-4-3-7-7-9l-4-2-3-1-2-1h-1c-3-4-5-6-8-7h-3-1v1l-1-1-3-4-5-3-1-1h-1v-1h-2l-1-1-3-2h-2v4h-1l-1-2-2-3-4-4-4-2h-1v-1c-1 0-2 1-1 2h1l1 5v2l-1-2-5-4-5-1-2 2v1h-1l-1-1v-1l-1-1-3-1a13 13 0 0 0-10 3h-1l-2-2-2-2-2-2-1-2c-1-1-2-3-1-5l-1 1-1 1-1 1-1 2-1 2v7h-1a9 9 0 0 0-6 0l-2 1-2 2v1h-1l-3-2h-2l-2-1a23 23 0 0 1-2-4l-2-4-1 2v3c-1 4-1 7 2 11l1 2 2 1v1l1 1 2 1 2 2h-2l-1 1c-2 2-2 4-1 6l1 2-2-1-3-2v-1l-1 1 1 1c1 5 3 9 8 11l3 1 2 2 1 1 1 1c3 2 6 3 10 3h8l3-1 1-1 5-2 6-1 3 1h1l1 1 2 1h2l3 2 3 1v1l4 4 4 5 6 7 1 1v1l-5-3-4-3h-11l-6 1-7 1-3-1-3-1-1 1 2 2 1 1 8 5 5 2h4l3 1c3 1 5 4 7 7l-1 1h-3-2-1l-9 3-4 2-5 3-3 1h-4v1c3 3 6 5 10 6v1c-8 0-13 0-17 5v2l1 1v1h-7c-2 0-3 1-3 2l-2 1-2 2-1 2h1v1l-2 3v1l-1-1h-5l-3 2-3 1h-3-1v1l1 1 6 7 3 1 1 1h-1v5h-1l-2 1-1 1-5 1-4 2-4-1s-1 0 0 0l1 3 1 2 6 4h6l2-1h1v1l-1 4a11 11 0 0 0 1 5l1 2v1l-2 3-1 1h-2l-2 2-2 1h-1l1 1v-1l3 1 2 1 3 1h3c4-1 7-2 9-6h2v1l1 4v2h1l1 1 1 1h-1l-1 2-1 1-4 2h-1-1c0-1 0 0 0 0v1h2l2 1 3 2h5l4-1c3-1 5-3 5-6l1-1 7-3h1l1-1c3-3 4-6 4-10v-4-2l-1-3a220 220 0 0 0-1-14v-1-1c1-3 4-4 7-5h8l4-1 4-2 4-2c2-2 5-3 8-3l4 1h4l3-1 3-1 1-1h1l1-1v-2l1 1a27 27 0 0 0 15 6h1l1 1 1 1 1 1h1v1l1 1 1 1 2 3c0 3-2 6-4 7h-6l-5-2-3-2-2-1-2-2-7-2-4 1-4 2-1 1-2 2-2 2c-4 4-4 9-3 15l1 4a10 10 0 0 1 0 5l-1 2v1c-4 1-8 4-12 7l-2 2-3 3-5 1 2 1c2 2 6 3 10 3l4-2 2-1 2-1h2l-1 1-1 3-1 6 1 6-1 1-1 1c-2 3-2 7 0 11h1v1l1 1c3 1 5 3 8 3h17c5 0 8 1 12 4l4 2 3 2 6 2h7c7 0 11 0 18 4l6 2 6 2 4 1h7c3 1 5 0 7-1h1v-1l-2-2-1-2-1-4v-6l1 1c1 2 3 4 3 7h2v-3-4l1-1 5 3 18 1c6-1 9 0 14 2l10 5c2 2 4 3 7 3l8 2h1v-1-4-4l-1-1 2 1 10 2c2 0 2-2 1-3v-1c-4-4-4-8-3-12l2-7 1-7-2-5-2-3v-1h-1 1l6-9 3-7 2-7 2-3 1-2a15 15 0 0 0 2-3v-2c2-5 2-8 1-13v-1h-1l-1 1c2 8-7 11-15 14h-2l2-1 1-3c2-3 2-5 2-9v-7c0-3 0-5 2-8a8 8 0 0 1 1-2 4 4 0 0 1 3-1h2l2 1v-1c-3-7-12-8-17-4l-1 1v-1c-2-3-2-4-2-7l1-5c2-7 3-11 2-18l-1-1h-1-1-1c-6 0-9 4-12 8l-1 3v-3c0-5-2-8-6-11l-5-4-1-3-1-2 1-5s-1-2-2-1c-3 2-6 4-7 7v10l-1-1-4-2a9 9 0 0 1-2-3v-2-2-2l-1-1c1-4 4-8 7-12l7-13 6-13 3-13 2-14v-5l1 2 4 2 3-1 4-2c4-1 6-4 8-6l4-4a52 52 0 0 1 20-14c6-2 11-4 16 0s6 7 8 13l1 3 1 4-1 3v4l-11 23-6 7-7 6c-4 3-8 7-11 13l-1 3-1 4-1 9 1 3v3l1 3c2 5 4 8 9 12 2 9 6 14 14 18l6 3a14 14 0 0 1 5 6v1c2 3 2 5 1 9l-2 7c-1 5-1 9 1 14l2 3 1 1" fill="#fbbc09"/><path d="M925 4397h3l1-1c2 0 3 0 5 2v3l-2 1c-4 0-8 0-12-3l-4-2h2l4 1 3-1" fill="#1e59ae"/><path d="M925 4397h3l1-1c2 0 3 0 5 2v3l-2 1c-4 0-8 0-12-3l-4-2h2l4 1 3-1z" fill="none" stroke="#1e59ae" stroke-width="2"/><path d="M923 4374v5l-2 1c-4-1-6-2-8-5-2-4-3-6-3-10 1 3 4 5 7 7l5 2h1" fill="#1e59ae"/><path d="M923 4374v5l-2 1c-4-1-6-2-8-5-2-4-3-6-3-10 1 3 4 5 7 7l5 2h1z" fill="none" stroke="#1e59ae" stroke-width="2"/><path d="M925 4344c1 3 3 4 6 6 2 2 4 0 6 2s2 6 0 8l-2 1h-1l-4-2c-4-4-7-9-5-14v-1" fill="#1e59ae"/><path d="M925 4344c1 3 3 4 6 6 2 2 4 0 6 2s2 6 0 8l-2 1h-1l-4-2c-4-4-7-9-5-14v-1z" fill="none" stroke="#1e59ae" stroke-width="2"/><path d="M950 4334v1l1 2c2 3 4 4 7 5v4l-1 3-2 1h-3v-1l-2-1-2-6 1-3 1-5" fill="#1e59ae"/><path d="M950 4334v1l1 2c2 3 4 4 7 5v4l-1 3-2 1h-3v-1l-2-1-2-6 1-3 1-5z" fill="none" stroke="#1e59ae" stroke-width="2"/><path d="M1079 4325v6l-1 1-3-1-6-7-1-2 4 2 7 1" fill="#1e59ae"/><path d="M1079 4325v6l-1 1-3-1-6-7-1-2 4 2 7 1z" fill="none" stroke="#1e59ae" stroke-width="2"/><path d="M1070 4294c1 4 3 6 6 8l4 1c1 2 0 5-2 6l-1 1h-1l-1-1-1-1-1-2-3-12" fill="#1e59ae"/><path d="M1070 4294c1 4 3 6 6 8l4 1c1 2 0 5-2 6l-1 1h-1l-1-1-1-1-1-2-3-12z" fill="none" stroke="#1e59ae" stroke-width="2"/><path d="M1091 4284l1 3 1 2 4 3c2 1 3 2 3 4v1l-3 3h-2l-1-1c-4-3-4-8-3-13v-2" fill="#1e59ae"/><path d="M1091 4284l1 3 1 2 4 3c2 1 3 2 3 4v1l-3 3h-2l-1-1c-4-3-4-8-3-13v-2z" fill="none" stroke="#1e59ae" stroke-width="2"/><path d="M1119 4293l3 4c2 1 4 1 4 3v5l-1 1v1l-2-1c-3-1-5-3-5-6v-4l1-3" fill="#1e59ae"/><path d="M1119 4293l3 4c2 1 4 1 4 3v5l-1 1v1l-2-1c-3-1-5-3-5-6v-4l1-3z" fill="none" stroke="#1e59ae" stroke-width="2"/><path d="M980 4625v1c1 3 0 6-3 7h-7c-4-2-7-4-11-3h-5c-4 1-6 4-10 4h-8l8-5c5-4 9-7 15-6l9 2c4 1 6 2 9 1h2l1-1" fill="#1e59ae"/><path d="M980 4625v1c1 3 0 6-3 7h-7c-4-2-7-4-11-3h-5c-4 1-6 4-10 4h-8l8-5c5-4 9-7 15-6l9 2c4 1 6 2 9 1h2l1-1z" fill="none" stroke="#1e59ae" stroke-width="2"/><path d="M1046 4621l1 1c1 2 0 5-2 7l-7 1c-4-2-8-4-12-2l-4 1-10 5h-8l7-5c5-5 9-8 15-8l9 1h9l1-1h1" fill="#1e59ae"/><path d="M1046 4621l1 1c1 2 0 5-2 7l-7 1c-4-2-8-4-12-2l-4 1-10 5h-8l7-5c5-5 9-8 15-8l9 1h9l1-1h1z" fill="none" stroke="#1e59ae" stroke-width="2"/><path d="M873 4483l4 1h7l2 2v1l1 1-1 1c-2 1-3 0-5-1l-8-5" fill="#1e59ae"/><path d="M873 4483l4 1h7l2 2v1l1 1-1 1c-2 1-3 0-5-1l-8-5z" fill="none" stroke="#1e59ae" stroke-width="2"/><path d="M872 4455l2 3 4 3c2 1 3 0 5 2 2 1 2 3 0 5v1l-3-1-3-2-3-3c-2-3-3-5-2-8" fill="#1e59ae"/><path d="M872 4455l2 3 4 3c2 1 3 0 5 2 2 1 2 3 0 5v1l-3-1-3-2-3-3c-2-3-3-5-2-8z" fill="none" stroke="#1e59ae" stroke-width="2"/><path d="M897 4447l4 6c2 2 4 4 4 7l-2 3h-1c-2-1-3-2-4-5l-1-4v-4-3" fill="#1e59ae"/><path d="M897 4447l4 6c2 2 4 4 4 7l-2 3h-1c-2-1-3-2-4-5l-1-4v-4-3z" fill="none" stroke="#1e59ae" stroke-width="2"/><path d="M897 4633l3-5c2-2 5-2 7-1v1c0 2-1 3-3 4-3 2-5 2-7 1" fill="#1e59ae"/><path d="M897 4633l3-5c2-2 5-2 7-1v1c0 2-1 3-3 4-3 2-5 2-7 1z" fill="none" stroke="#1e59ae" stroke-width="2"/><path d="M876 4621h1l3-2 3-4 2-1h1c2-1 3 0 4 2l-1 1c-1 3-3 4-7 4l-5 1-1-1" fill="#1e59ae"/><path d="M876 4621h1l3-2 3-4 2-1h1c2-1 3 0 4 2l-1 1c-1 3-3 4-7 4l-5 1-1-1z" fill="none" stroke="#1e59ae" stroke-width="2"/><path d="M865 4595h7c3-1 5-4 7-2 1 1 2 3 0 4h-1l-2 2h-4c-2-1-4-1-5-3l-2-1" fill="#1e59ae"/><path d="M865 4595h7c3-1 5-4 7-2 1 1 2 3 0 4h-1l-2 2h-4c-2-1-4-1-5-3l-2-1z" fill="none" stroke="#1e59ae" stroke-width="2"/><path d="M873 4576c2 1 4 0 6-1l2-1c2-1 4 1 4 3l1 1c-1 3-5 3-8 1l-5-3" fill="#1e59ae"/><path d="M873 4576c2 1 4 0 6-1l2-1c2-1 4 1 4 3l1 1c-1 3-5 3-8 1l-5-3z" fill="none" stroke="#1e59ae" stroke-width="2"/><path d="M921 4559l8 3c2 1 3-2 1-3l-9-1v1zm-5 5l7 1h1c1 1 3-1 1-2l-1-1h-8c-3 1-1 2 0 2zm-8 5l9 1 2 1c3 1 4-3 2-4l-3-1c-4-1-6 0-10 1-5 2-2 2 0 2zm-6 6h1c4 0 7-1 11 1 2 1 4-3 1-4-4-2-13 1-14 1-2 1 0 2 1 2zm167 19l9 7-9 2-1 1v1l1 10h2l2-10v18c0 2 2 2 2 0 0-6 2-9 3-15v1 12l-1 4h3v-4l3-9-1 15c0 1 2 2 3 0l2-9v10h2c0-4 1-7 3-11 0 8 0 14 4 22l1-1c-6-11 3-20 1-32-1-3-2-6-5-8-5-6-8-5-15-9-6-2-12-3-14-9h-2c3 7 7 10 14 13 5 3 8 5 11 9h-1l-2-1c-5-4-9-5-15-8v1zm-72 18c2 2 3 3 3 5l1 2c0 2 2 1 2 0v-3l-5-5-1 1zm207-49l-5-9 5 5 4 8 1 6c1 2 3 9 4 2l-1-8c-1-4-1-7-4-11-5-6-10-8-18-10-5-2-8 0-13 0h-3c-4 0-7 0-10-3l-1 1c4 2 6 4 10 4l8 3c3 0 4 1 7 3l4 4c1 1 6 5 2-2l-1-2c4 3 7 5 9 10 1 1 2 0 2-1zm-275-82l2-5v-3c0-3-3-6-6-6-2 0-2 3 0 3s3 1 3 3v3l-1 4c0 1 1 2 2 1zm26 21c3-1 6 0 9 1 4 1 6 3 9 5l7 6c1 1 2 0 2-1l-7-8-10-5h-11c-1 1 0 2 1 2zm-4 33l4 2 7 5 1 1 8 9 2 1 1 1 3 3 3 2 7 5 4 2h1c4 1 8 1 13-2h-1c-5 2-10 1-15-2l-7-5-3-2-3-3-1-1-1-2-9-8-1-1c-3-3-5-3-8-4l-5-1zm48-152v-6c1 2 2 5 1 7v3c0 1 1 2 2 0l1-4v-5l1 1c2 4 1 8 0 13h1l2-7c1 4 2 7 0 11-2 3 0 3 2 1 3-5 4-8 2-14l-3-7c-5-4-10-5-17-7v1l3 1 3 12h2zm106 8l1-5-1-3c0-1-2-1-2 1v7h2zm6 3l1-4v-4l-1-5-1-1c-1-2-3-1-2 1v1l1 4v7c0 2 2 2 2 1zm28-32l1-3 3-3 1-3 2-2h-1l-2 1-2 2-2 2c1-8 0-13-1-22l-3-11c-1-3-6-2-5 1 1 4 3 6 3 10 2 10 2 15 2 25-1 7-3 12-7 19l-3 5v1a41 41 0 0 0-1 3c0 1 0 3 2 2h6c4-1 3-6 2-9v-3-1l3-2 3-4v-1c-2 1-4 1-5 3v-1l3-2 5-5 2-2c1-1 1-3-1-2l-3 2-3 2 1-2zm-25 36c4-7 5-12 4-21-1-2-5-2-4 1 1 8 2 13-1 19-1 1 0 2 1 1zm-11 59v-7c0-2-2-2-2 0v6c0 1 1 2 2 1zm-3 9l1-6-1-8h-2l1 8v4l1 2zm-129 61l2 2c5 3 6 7 12 8l5 2 4 3c1 1 4-1 2-2l-5-4-5-2c-5-1-7-4-11-7l-3-1c-1-1-2 0-1 1zm14 19c9 3 11 12 21 12h1c2 0 2-4 0-4h-1c-9 0-13-7-21-9v1zm-6 103l3 1c2 1 4-2 2-3l-4-1c-2-1-3 3-1 3zm-4 2l4 3c2 1 3-3 1-4l-5-1c-1 0-2 2 0 2zm-3 3c3 0 4 2 6 4 2 1 4-3 2-4l-8-1v1zm134-10v-8l1-6 4-14 1-6 1-9c0-7-2-10-5-16h-1c3 6 3 10 3 16l-1 9-1 5-4 14-1 7 1 8h2zm7 6c-2-2-2-4-1-7l1-1c2-1 2 1 3 2 1 2 3 3 2 0-2-3-3-7-7-6-2 1-3 3-3 5-1 4 0 6 2 9 2 2 4 0 3-2zm-48-95c4 2 4 6 8 8 5 4 9 3 14 5 2 1 4-2 2-3-5-2-10-1-14-4s-5-6-10-8v2zm-76 88l1-2c4-5 8-8 8-15s-3-13-9-16l-4-2c-1-1-2 0-1 1l4 3c5 3 6 8 6 14s-1 10-5 15l-2 2h2zm10 18c5-1 8-1 13 1 2 1 3-2 2-4v-1l-3-6c-4-3-9-4-15-3l-5 5-5 1-2 1v1h3c2-1 5 0 6 2l3 3c3 5 6 7 12 7h3l3-2c1 0 0-2-1-1l-2 1h-3c-4 0-7-2-9-5zm11-4l-6 1v-1c-1-4-5-6-8-5l-3 1v1l4-4c5-1 8 1 12 4l1 3zm-11 2h-1l-2-2 1-1c1 0 2 1 2 3zm93 1v-1l-1-3-2-2-2-5c-3-2-6-4-9-4 2-1 3-3 3-5h-2l-1 1v-4-1l-4 5v-5h-1c0 3-2 8-4 11v1l-3 2v1h-5l-2 2 1 1h2c2-1 5-1 6 1l3 4c3 5 7 7 12 7l4-1 2-1v-1h-2l-4 1c-3 0-6-2-8-5h10l5 1c1 2 2 1 2 0zm-21-6h1l3 1-2 2-2-3zm9 1l-1-1c-1-3-4-5-8-4l-2 1h-1l5-3c4-1 8 1 11 4l2 3h-6zm-31-48c3 0 4-1 6 1 3 1 4 3 5 6l2 4c0 1 0 1 0 0l1-5c-1-4-3-6-6-9h-8v3zm13 23l1-4h2c2 0 2-4 0-3h-4l-1 2 2 5s1 0 0 0zm-19 14c3 4 9 6 14 3l2-3c2-2-1-5-3-3l-2 2c-3 2-8 3-11 0v1zm77 5c3 3 4 7 4 12v8c0 2 3 2 3 0l2-8c-1-6-3-10-8-14-1-1-3 1-1 2zm-71-86c4-3 7-3 11-1 6 2 7 8 12 11 3 3 6 3 10 4 7 0 12 1 17 6 6 5 6 8 6 15v9h2v-9c0-8-1-14-7-20-6-5-10-8-18-8-3 0-5 0-9-3-5-3-5-7-11-9-5-2-9 1-14 4l1 1zm-76-209l-1-7 1 1c2 4 3 6 2 10 0 2 3 2 3 1 1-5 1-8-1-13l-1-1c3 1 6 3 6 6l2 2c-2 3-4 5-3 9h2c-1-4 2-5 4-8l3-4-1 6-1 5 1 1 3-5 2-11 3 5 3 6 1 1v8c0 1 1 2 3 2h3c4-3 4-8 3-13l3 5 3 6v11c0 3 0 4-2 7 0 2-2 4 3 4l4 1 3 1 3 4c1 4 2 7 0 11l-4 5v3c-3-2-6-3-8-6l-1-1c2 0 3-1 3-2v-5l-3-1c-4 1-4 7-2 10 3 4 7 4 10 6-2 2 0 4 2 3l1-1 6-2 4 1c6 1 9 6 10 11h-1c-5-2-8-1-11 1l-2 2v1l-3-4-1-1-6-4-5-4c-2-1-4 1-2 3l4 4 3 4c2 3 3 5 3 8l-1 12-3 9h1c2-3 4-5 5-9l1-11 1-3c2 7 3 13-1 19h1c3-3 4-7 5-11 0 4 0 8-2 12h1l5-12-1 7h1l4-9v-7l1 4v5l-1 8c0 1 1 2 2 1l2-9v-1 13c-1 2-1 3 1 1l3-10 2 8v1l2-7 1 3c2 6 3 9 3 14 0 2 2 2 2 0l1-8 2 9c1 1 2 1 2-1v-12l2 3 2 8v8c-1 7-3 10-7 15 0 1 1 2 2 1 4-5 8-8 10-15v-10l-3-10c-9-11-16-18-19-33-2-11 2-19 11-26 7-7 13-8 22-11 5-2 8-4 10-8l6-5c6-8 9-15 9-25v-8l1-2-1-2-1-2-3 1c-6 2-7 6-13 8-4 1-8-1-11-5l1-1 2-5c3 3 6 5 11 5h2c2 0 3-2 5-3h1c1-1 0-3-1-2h-1l-4 2-2 1c-5 0-7-4-11-7h-1l-1-1v-1l-2-2-2-4-1-2h3l1-1c3-2 4-6 3-10h4l3 7 7 10c2 4 4 6 9 6l3-1 1-1c1-1 0-2-1-1h-3c-3 0-5-2-6-5l-7-10-3-6 1 1 1 1h1l1 1h4c3-1 4-3 5-6v-2h3c2 0 4 1 5 3v6l1 11c0 3 1 5 3 8 1 1 1 2 3 2v-1l-2-2-1-7v-10l5 4h5c1-1 3-1 3-3l1-2h1v-4h1l3 1 1 1c2 3 3 4 2 7v5c0 2 2 2 2 0l4-5c2 2 2 5 2 8 0 6-2 9-5 15h2c3-5 5-8 6-14 2 3 2 6 1 10v2l-1 4c-1 0-2 2-1 3l-5 7 1 1 6-8 2 2 4 3 1 1-4 6c-2 4-3 7-3 11l1 1-4 2c-1 0 0 2 1 1 3-1 7-2 8 1l1 2h-5l-6 3-3 5v8l1 5-2 3c-4 3-8 2-12 1h-10l-3 1-1 2c-2 1-2 4-2 6h-4l-1 1v-1l-1-7c0-2-2-1-2 0l1 7-1 9c-1-6-3-11-7-17-2-2-5 0-3 2 8 11 6 20 6 34v9c-1 2 2 3 3 1l1-6 3-4 1-6 1-1v3l-1 7v1l-2 6c0 1 3 2 3 0l1-1 2-5v-2l11-11c3-4 5-6 10-7h3l-7 4c-1 1 0 2 1 1 3-2 6-3 9-1v1c-13 2-20 10-27 21l-2 4c-1 1 0 1 1 1l2-4c7-10 15-16 27-18h7c3 1 5-3 2-4l-4-1c3-2 6-2 10-2l2 1 4 5c0 2 2 1 1 0v-4l6 4 4 2c8 8 13 14 14 25 1 10-1 16-4 25-2 7-5 12-9 17l-1 1a112 112 0 0 1-12 10c-7 4-9 8-12 15v11l2 2 2 4 2 2c5 3 8 3 14 3l12-1h8c13 3 21 10 27 22 2 7 3 11 1 18-1 3 0 5-2 8-3 6-4 10-4 17l1 4 1 2c-5-3-5-8-5-13v-6l-2-7-2-5-1-1-5-9-1-3v4c3 6 5 10 5 17l-3 10-1 5c-2 6 0 11 4 16l4 5c3 2 5 3 6 7 2 3 1 5 0 8v9l-1 3 1 3 1 3c-2-2-4-4-5-8l-1-10-3-7c-1-3-3-4-5-6l-5-3-5-3-2-3c-4-6-3-10-2-16 1-8 6-14 3-22l-4-6c-2-1-3 1-2 2v1c2 6 0 12-4 18-4 5-5 10-3 16l-1-3c-2-5-1-9 0-14l3-7c1-4 1-7-1-11l-1-3c-3-4-7-5-11-7-8-4-13-7-15-15 2 1 2-1 0-2-4-4-7-7-9-12l-1-5-1-3 2-9 2-6c6-12 17-14 24-26 4-5 10-20 10-24a39 39 0 0 0-1-14c-2-7-4-10-9-14s-10-4-17-2l-4 2c-6 2-8 4-13 8-6 6-8 12-15 15l-4 2h-2l-4-1-2-3v-7h-2l1 8v1l-1 6c0 10-3 16-6 26s-7 15-13 24c-4 7-7 11-8 16l-1-1v-3l1-5 6-9c8-9 14-15 15-35v-5l-2 10-1-4-2 9-1-6-2 9c0-2 0-5-1-4l-2 10v-3-4l-5 13c-1 3-2 4-5 6-4 3-8 5-10 10l-1 2-4 6c-10-1-20 0-31-7l-5-4c-7-7-4-18 3-23l9-8-1-1c-4 3-7 3-10 6-5 4-9 11-10 17l-3 1 1-6 1-3c1-2-2-1-3 1l-1 4v7l-3-5v-4l1-2c0-2-2 2-3 3l1 6 3 8h1l-6-5c-5-5-10-7-16-10h-4c-1-1-2 2 0 2l3 1c6 3 8 6 13 11 6 4 7 10 13 13-7-2-9-4-15-9s-10-8-17-8v1c6 1 9 5 15 9 6 5 8 11 16 14 6 2 11 1 17 1l4-1c-6 3-10 6-17 5s-10-6-16-8l-4-2-9-1c-1 0-2 2 0 2l8 2 4 1c7 3 9 9 16 10 10 1 15-5 25-7 11-3 18-1 24 1l12 4 7 2 11 6 2 2 1 3-7-3c-12-5-18-8-31-8l-11 1-6 1-11 2-13 4-11-1-9-4c0-1 0 0 0 0 3 3 5 5 9 6l12 2 12-3 12-3h16c12 0 18 4 29 8 13 5 20 12 25 25l3 8 2 14c0 11 3 17 2 28l-1 6-1 3v2h1l1-2v-2l2-6 1-11h2l4-1-2 7-2 11h1l4-10 2-6 3-4 1-1v-1c1-1-1-2-1-1h-2c-3 2-5 2-8 2h-2v-2l6-3c6-2 13-5 16-9l-1 3-1 3-4 8c-2 5-2 8-5 13l-5 9c-2 0-4 2-3 4l1 3 2 4c0 10-3 18 2 25l-7-1c-5-2-10-3-11-9v-1l-5-7-3-3h-1l3 5c5 3 3 8 6 13l1 1 1 4c1 2 4 2 4 5v1c-5-1-8-2-12-5l-9-5c-6-2-10-3-16-2l-17-2-8-4c-10-7-19-5-31-5h-1c-2 0-2 2 0 2l1 1 19 1c-1 1 0 2 1 3 3 4 3 8 5 13l-4-6c-4-4-7-6-12-8l-1 2c5 2 7 5 10 8l7 7 2 1 1 1h-6l-7-1-3-1-12-5c-7-3-12-4-19-4-5 0-8 1-12-1l-7-5c-4-2-8-3-13-3h-15-3l-7-2-2-1c1 0 2 0 1-1v-2l3-3v2h1c2 2 3 3 5 3 3 0 3-4 0-4h-3l-2-1c1-1 0-2-1-2l-1-2h1l-1-3c0-4 2-7 3-11l2-2c2-2 3-2 5-2l9 3 3 3c2 2 6 2 7 0v-1l3-1 1-1 2-9-4-9-5-7c0-2-3-2-2 0l1 6h-1c-4 4-9 2-14 2a25 25 0 0 0-6-1l1-3c1-3-1-5-2-8-1-5-1-9 3-13l3-3 2 6 1-1v-5l5 9c1 0 2 0 1-1-2-3-2-6-1-10 0 3 2 6 4 10 1 0 2 0 1-1-1-2-2-4-1-7l3 5h1v-4l3 2 2 2c5 1 9 3 13 2 3-1 4-3 5-6v-1c1-4 0-6-2-9l-4-4h-1l14-2c4 3 7 5 7 9 0 3-3 4-2 6l-2-2h-1c-1-1-1 0-1 1l1 1c2 2 3 4 3 7h-1l-2-4c-1 0-2 0-1 1l1 4v2l-1-1c0-2-1-2-3-3v1l1 3 1 2-4-4v1l1 3-3-2c-1-1-1 0-1 1l4 4c-2-2-4-3-7-3v1c2 0 3 1 4 3l-5-2c-1-1-2 2 0 2l5 4v1l3 6h1a14 14 0 0 1 0-2l1-4 2 6h1l-1-7c2 2 3 3 3 6l1-1-1-6 3 6c1 1 2 2 2-1l-2-8 4 7h1v3l-11 9c-3 3-6 7-11 7-1-1 6 5 15 3l8-4-1 1-1 1-2 2c-2 4 2 6 2 10l1 2v1c-2 4-2 7 1 11 1 1 2 0 2-1l-1-2 3-4v-2l-1-1v-1c1-1 0-2-1-2l2-11 1-3 5-3 9 3h1l3 2c2 1 5 1 7-1v-1l2-1 1-1 1-10-5-8c-2-3-5-3-5-6-1-2-4-2-3 0l2 5-1 1c-3 5-8 3-14 4a29 29 0 0 0-5 0v-3c0-4-2-5-3-9-2-4-2-9 1-13l3-3 3 6v-6l6 8 1-1c-2-3-3-6-3-10l6 9 1-1c-2-2-2-4-2-6l3 5 2-1-1-4c10 5 16 9 26 7v-1l-4 1c-11-6-16-16-28-21l-8-3c-15-2-24 6-39 3-7-1-10-3-15-6l4-3v-1-2l-4-2-3-1h-1l-1-1a48 48 0 0 0-3-2c-5-3-6-6-10-11l-8-7c-5-2-8-2-12-2l5-2 2-1c1 0 2-1 1-2-2-5-5-7-10-9l-2-1-9-2-7-3h2c9 1 14-3 23 0l9 4 2 1 6 3 3 1h1l1-1-1-1-6-4-3-4-8-8a56 56 0 0 0-10-10l-8-4-6-1-12 1-1 1-3 1h-7l-9-2-1-2 1-1 1-1 1-2v-1l-2-3-2-2c-2-2-4-1-6-1v-5-3l1 1 1 1 2 2c3 5 6 8 11 11l5 3 6 2 5-1c3 0 5-1 7-3v-1l5-2 3-2c0-2-2-3-3-2l-1 2c-4 2-7 0-10-3l-6-7-2-4-1-2 2-1h1c2-2 4-3 4-6v-3l3-2h4l2 1h1l3 5 2 2 1 1c1 1 3-1 1-2l-1-1v-1l-1-1 2-5 3 2 5 4c1 2 2 2 3 1l2-2v-1l-1-5 1 1 4 3 2 4 1 2 1 5h2l1-1v-1l-1-7 1 1 2 1 2 2 1 2 1 5c1 2 4 2 3 0v-3c4 2 7 5 7 10v3l-4-3c-5-3-8-4-13-5l-2-1-11-2v1l5 1 1 2c3 1 5 2 6 5l-1-3 4 3 7 6-2-4-2-3 2 2 6 7c0 1 0 1 0 0l-2-6c3 2 4 4 6 8l2 4h1l-1-6 5 7 2 4c1 2 4 4 3 0l-2-6-5-7-2-2v-5l-1-6 2 1c3 1 4 3 6 6l3 5 3 13h1c0-6 1-9-1-14l-1-3 6 4c4 3 6 6 6 11v1c0 3 4 3 4 0v-1l2-1c6-4 8-9 7-16 2 1 3 3 4 6v8c-1 2 3 3 3 1l6-8 9-6 21-8 5-5c1-2-2-3-3-2l-4 4-2 1c0-2-1-3-3-4-11-6-20 4-33 5-9 1-17-2-21-10-2-3-6-6-3-28v-7l-1-11c-1-7-2-12-6-18l-7-7-9-3c-4 2-5 4-8 7l-1 1-1 3-1 1-2 3-3 2-5 1-4-1 1-1-1-5v-1l2 1c5 2 10 0 14-5 1-1-2-3-3-2-2 4-6 5-10 3l-3-1-8-6-2-1-4-2 1-2c2-2 3-5 2-8 0-1 0-1 0 0l2 2c2 2 3 4 6 5l5 4 8 4c4 0 7-2 10-5l1-1v-2l-3 2c-2 2-4 3-7 2-3 0-4-1-7-3l-5-4-5-4-1-2-3-3-1-3v-3c2 3 4 4 7 4h3l2-4c3-3 4-7 2-11h1v4c2 6 4 8 7 13l4 4c0 2 1 2 2 3l1 2c2 2 3 3 6 3 4 0 6-1 9-4 1-2-1-4-2-2-2 2-4 3-7 3l-4-2-1-1-2-3-3-5-6-12 1-3 1 1 1 1 2 1h8c3-1 4-3 4-6l1-2 1 2c3 3 6 5 6 9l1 1v2h2l-1-6zm-14 211c5 0 8 0 13 2l-1 1v1l2 2h-1l-1 1h-1l-5 3-8-1c-7 0-10 4-17 7h-7l-3 1h-1a12 12 0 0 0-9 9v5l1 10 1 4-1 4c0 3-1 5-3 8l-1 1-7 4c1-2 0-3-1-4-3-1-7-1-9 1l-1-2v-3-2l9-3c4-1 5-4 6-7l1-5v-1-2-3-4l-2-1-1-2 1-2c2-2 1-5 1-8 1-1-1-2-1-1-1 3-1 5-3 7l-1 2-1 1-3 1-3-1-2-1-6-3-6-2 2-2v-2l1-2-4-5 4-2 2-2c2 1 3-2 1-3l-3-1 5-2c2 0 5 0 7 2l1 1c1 1 3 0 3-1v-2l-2-4-2-2 16-1 2-1h4l6-2c-2-3-4-4-8-4-5 0-8-1-12-4h5c6-2 10-6 15-6l1 2c4 0 6 3 7 6h-8c-2 0-2 2 0 2 4 0 6 1 9 3l-5 3-7 2v2l5 1 8 2 11-2h2l7 1c-4 0-8 1-11 3v1c5-3 10-1 15 0l-6 1v1zm41-208v-1zm106 202l-1-5c-1-5-6-7-8-12l-4-8c0-1 1-5 3-6l2 8 5 5c4 3 8 6 8 11v1 4c-1 2 0 2 1 0 2-6 4-13 11-13h3c1 7-2 10-4 17v5c0 3 0 5 2 9h1c-2 2-3 3-3 5 0-12-6-20 0-31l-2 1c-6 10-4 15-3 25-3-7-6-12-11-16zm19 49l1-2 4-7v-11c0-4 0-6 2-9 1-1 0-2-1-1-2 4-4 6-4 10l-1 10-2 4-2-13c1-5 3-8 7-12 3-3 7-4 11-2l-3 1-2 2c-2 4-2 6-2 10v7c0 3 0 5-2 8l-4 6-3 2v-3h1zm-240-24l7 4 5 3 3 1h1l4 1 4-2c-1 3-1 6-4 8l-10 1h-13c3-2 3-8 0-11h-1l3-4v-1h1zm2-18l-2 4h-6l-2 1c-2 1-3 3-5 2s-3 0-2 2l1 2c1 2 2 4 5 5l4 2-1 5-8 3c-3 1-5 2-8 0-1 0-2 1-1 2l3 4 6 4 6 1 2-1-1 4 1 2 2 5-3 3-2 2-4 2c-2 0-2 2 0 2l4 1c3 1 4 2 7 1 4-1 8-1 10-5h1v4c0 2 1 2 3 4-2 2-3 5-6 4h-1c-2-1-3 2-1 2l3 2 4 1h9c3-2 5-4 6-7l7-3 2-2c3-3 4-6 4-10l1-4-1-5a230 230 0 0 0-2-14v-2l7-4 1-1h11c6-3 9-7 16-7h8l7-2 1-1 1-1 1-1a27 27 0 0 0 15 6l1 1 2 2h1v1l1 1 1 1h1l1 3c0 3-1 5-4 6-3 2-6 0-10-1l-3-3-3-2-8-2-8 2-1 1-5 5c-4 4-4 9-3 15 1 3 2 5 1 8v4c-5 1-8 3-12 7-4 3-7 6-12 5-1 0 6 6 14 5 4 0 6-2 9-3l-1 3c-2 4-1 8 0 12l-2 1v1c-3 3-3 7-1 11l3 2 8 4h17c5 0 8 1 12 3l7 5c5 2 8 2 13 2 7 0 11 0 18 3l12 5h4l7 1 8-1 1-2-3-4c-2-3-2-6-2-9l4 7c1 2 3 1 3-1l-1-2 1-4 5 2c7 1 11 2 19 1 5 0 8 1 13 3l9 5c5 3 9 3 16 4l2-1-1-8h1c4 2 6 2 10 2 2 0 3-2 1-3v-1c-7-7 1-16 1-26l-2-5-2-3-1-1 6-8 5-15 5-7 1-3c2-5 2-8 1-13l-1-1c-1-1-3 0-3 1 3 7-6 11-14 13l2-2c2-4 2-6 2-10v-7c0-3 0-5 2-8l1-1 3-1h1c1 2 4 0 3-1-4-7-13-8-19-4l-1-7 1-4 2-19-2-2h-1l-2 1c-6 0-10 3-12 8-1-5-3-9-7-12l-4-4c-2-3-3-5-2-8 1-2-1-3-2-2-4 1-6 3-7 7-1 3-2 6-1 8l-4-2-1-2c0-2-3-7 5-19 7-9 10-15 13-26 3-10 5-16 5-27v-3c2 2 4 3 6 2l2-1 4-1c8-3 10-9 17-15 4-4 6-6 12-8l4-2c5-2 10-3 14 0 5 4 7 7 8 13l2 7-1 7c0 3-7 17-11 22-7 12-17 14-23 27l-3 6a31 31 0 0 0 0 13l1 6c2 5 5 9 9 12 2 9 7 15 15 19 4 2 7 3 10 7l1 2v9l-1 6c-2 6-2 10 0 15l2 4 3 1v-1c-3-5 1-10 4-15 5-5 5-11 4-18v2c3 8-1 13-2 21-1 7-2 12 1 18l3 3 5 4 5 2c2 2 4 3 5 6l2 6 2 10c2 5 5 8 10 10h1v-2h-1l-2-4v-3-5l3-6c0-4 0-7-2-11-1-4-3-6-6-8l-4-5c-3-4-5-8-3-12l1-5 1-4v3c0 6 3 10 8 14l2 2h2v-1h-1l-1-2v-2-4c0-6 2-9 4-15 2-4 2-6 2-9 2-8 1-13-2-20-5-14-14-22-29-24l-8-1-12 1c-5 0-8 0-12-2l-2-1-2-3-1-2v-4-5c2-6 5-9 10-13a60 60 0 0 0 12-9l4-4c4-5 7-10 9-17 3-10 5-16 4-26a39 39 0 0 0-19-31c-5-3-8-3-12-4l-4-2c-5 0-9 1-13 5l-1-2v-2l-2-1c-2-2-4-3-7-3-5 2-8 5-12 9l-8 9v-1l1-7-2-13h3c2 1 3 0 3-2-1-3-2-5-1-6l1-1 1-1c4-1 6 0 9 1 6 0 10 2 15-2 2-1 3-3 3-6v-5-2-2c-1-2 0-4 2-6l3-2 6-1 1-1c2 1 3 0 3-2l-2-4c-1-3-3-3-5-3-1-4-1-6 1-10l4-5 1-3h-1l-2-2c0-2-1-3-3-4l-3-3 1-2v-3c1-5 1-8-2-13l-2-1c0-3-1-6-4-8-1-2-3-2-4 0v4l-1 1 1-1c0-4 1-7-1-10l-2-2c-2-2-3-3-6-3l-2 1-6-4-4-6-3-1v1l-1 3-1 5-1 1c-2-2-4-4-7-4l-3 1c-1-2-3-3-6-4l-3-3-1-1-1-3v-4c0-1-1-2-2-1h-2l-1 2-1 6 1 13h-1c-2-1-3 0-5 2l-4-2c-3-1-5-3-6-6v-2l-1-1h-1l-1 1v1c-1 6-2 10 1 15l2 2 2 3 1 5 2 4-4-1c-3-1-6-1-6-4-1-1-3-1-3 1l1 2v1l1 1 1 4c2 4 2 7 6 9 2 2 3 3 5 3l2-2c3 6 7 10 13 8s7-7 13-9v1l1 1-1 8c0 9-4 15-10 23l-4 6c-3 2-5 4-9 5-10 3-17 4-25 11-9 8-14 17-12 30-2-4-5-8-10-9l-6-1 1-2c3-5 2-9 1-14l-4-7a12 12 0 0 0-7-3l1-6c1-5-1-7-3-12 0-3-1-4-3-6-2-4-4-4-7-7-1-1-2 0-1 1 1 4 0 7-2 9v-1l-1-4-1-2-3-6c-2-4-4-5-7-8l-4-1c-1-2-4 0-3 2v4l-1 3c-2-5-6-8-11-10h-1l-3-1c-3 0-5 2-8 3-1-2-2-3-4-3-2-1-4 0-5-2l-1-2-1-4-1-1h-1l-1 1-4 8v8h-1l-2 1-2 2c-2-2-5-1-7-2l-6-5-1-3h-2l-1 2-1 3c-1 6-1 11 2 15l-1 2 1 5 1 3-1 1h-1l-4-1c-4-2-7-3-9-7l-1 1v1c0 5-2 9 1 13 3 5 5 7 10 9h2l1 1-1 3 2 5h-10-1v1l6 6c5 3 8 4 14 3l1-1c3 2 5 2 8 2h7l4-4 1-3h1l2-3 2-2v-1l5-2c2-1 4 0 6 1l6 6c4 6 6 9 7 16l1 11-1 7v20c0 3 2 6 4 9 5 9 13 13 23 12 12-1 20-9 31-3l1 1c-5 0-10-1-15 1s-6 5-9 9l-3 4-1-2c-1-4-3-6-7-8-1-1-2 0-2 1 1 7-2 11-7 15-1-4-4-7-8-10l-9-4h-1c-2-3-4-5-8-7h-3l-1 1-8-8-3-1-1-1-2-1-2-2h-3l-1 1 1 4-1-2-2-4-5-4-4-2h-1c-2 0-2 2-1 2l2 5c-2-2-3-4-6-5l-5-1-2 3v1l-1-2-1-1-3-2h-1l-7 1-4 3-4-4c-2-3-4-6-3-9 1-2-3 0-3 1l-2 2-1 4-1 5v1h-4l-4 2-3 2-3-1-3-2c-2-2-4-4-4-7v-1h-1l-2 6c0 4 0 7 2 11l3 4 3 3h1l-2 1v8l-3-3c-1-1-2 0-2 2v3c1 3 4 6 9 8l3 1v1l3 3c4 3 6 4 11 4h2l6-1 3-1h1c4-2 6-3 11-3l5 1 4 2 5 3h1l7 9 6 7 2 1c-3-2-5-4-9-5-9-3-14 2-23 1l-7-1c-1-1-2 1-1 2l2 3c3 2 5 4 9 5l9 2 2 1c4 1 5 3 7 6h-5-1c-7 0-10 5-18 8-3 1-4 2-7 1l-1 1v2l11 5c-8 0-13 1-18 6v1l1 1 1 1h-7c-4 1-4 3-7 5l-1 1v2zm-14 10c2 1 4 0 6-1l2-1c2-1 4 1 4 3l1 1c-1 3-5 3-8 1l-5-3zm10 36l-1-4-1-2 2-3v-1l6 1 6 1 12-1c4-2 5-5 6-9v2l-1 4v2l-1 4-4 4-12 4-1 1h-1c0-3-4-5-7-5l-1 1-2 1zm-18-17h7c3-1 5-4 7-2 1 1 2 3 0 4h-1l-2 2h-4c-2-1-4-1-5-3l-2-1zm11 26h1l3-2 3-4 2-1h1c2-1 3 0 4 2l-1 1c-1 3-3 4-7 4l-5 1-1-1zm21 12l3-5c2-2 5-2 7-1v1c0 2-1 3-3 4-3 2-5 2-7 1zm1-167l2 5v1l3 3 6 9c2 2 4 3 7 3-2 2-3 2-5 2h-5l-4-1-5-4c-4-3-6-5-9-10l-2-1v-1l1-2c2-3 1-7-1-9h1l3-1h3l1 1 4 5zm-1-19l4 6c2 2 4 4 4 7l-2 3h-1c-2-1-3-2-4-5l-1-4v-4-3zm-25 8l2 3 4 3c2 1 3 0 5 2 2 1 2 3 0 5v1l-3-1-3-2-3-3c-2-3-3-5-2-8zm1 28l4 1h7l2 2v1l1 1-1 1c-2 1-3 0-5-1l-8-5zm173 138l1 1c1 2 0 5-2 7l-7 1c-4-2-8-4-12-2l-4 1-10 5h-8l7-5c5-5 9-8 15-8l9 1h9l1-1h1zm-66 4v1c1 3 0 6-3 7h-7c-4-2-7-4-11-3h-5c-4 1-6 4-10 4h-8l8-5c5-4 9-7 15-6l9 2c4 1 6 2 9 1h2l1-1zm139-332l3 4c2 1 4 1 4 3v4l-1 2v1l-2-1c-3-1-5-3-5-6v-4l1-3zm-28-9l1 3 1 2 4 3 3 3v2l-3 3h-2l-1-1c-4-3-4-8-3-13v-2zm-21 10c1 4 3 6 6 8l4 1c1 2 0 5-2 6l-1 1h-1l-1-1-1-1-1-2-3-12zm9 31v6l-1 1-3-1-6-7-1-2 4 2 7 1zm-129 9v1l1 2c2 3 4 4 7 5v4l-1 3-2 1h-3v-1l-2-1-2-6 1-3 1-5zm-25 10c1 3 3 4 6 6 2 2 4 0 6 2s2 6 0 8l-2 1h-1l-4-2c-4-4-7-9-5-14v-1zm-2 30v5l-2 1c-4-1-6-2-8-5-2-4-3-6-3-10 1 3 4 5 7 7l5 2h1zm2 23h3l1-1c2 0 3 0 5 2v3l-2 1c-4 0-8 0-12-3l-4-2h2l4 1 3-1" fill="#b8651b"/><path d="M1321 4561l-2-5-1-1 1-2-1-4-2-1v-2l-3-3h-2l1-4-1-30 3 5c6 7 11 10 16 18l8 18c-3 2-3 5-5 8v11l2 6c5 10 15 9 23 16l5 5 1 1 1 4v1c-2 9-4 13-4 22v3c0 5 1 9 4 13l3 3c0 5 1 8 3 12l3 5 1 1 2 2h1l6 3c6 0 8 6 14 8 4 2 9 0 12-4l3 1c5 0 8 1 13-2 4-1 5-4 8-7l3-5 4-6 1-3 2-1c-1-2 1-3 2-5 6-8 12-10 15-19 3-8 3-14 2-22l1-12h1c5-7 6-13 6-22v-10l1-3 3-5v-2l3-2c10-5 14-11 20-19l1 11v3c2 10 3 16 3 26v7l-1 8-2 2-3 9-1 3-8-3h-1v1c-2-1-3 2-1 2l3 2v1l-4-1c-1-1-2 1 0 2l5 3-6-2c-1-1-2 2-1 2l7 4-7-3-1 2 7 5v1l-7-4c-2 0-3 2-1 3l6 3-6-3c-2 0-3 2-1 3l5 3-5-2c-2-1-3 1-1 2l5 3-6-2c-1-1-2 1-1 2l5 3-5-2c-1-1-2 1-1 2l8 4-8-3c-2-1-3 1-1 2l5 3-6-2h-1v2l9 5h-1l-9-4c-1-1-2 2 0 2l7 5-8-4c-2 0-2 2-1 3l7 4-8-3c-1-1-2 1-1 2l6 3-1 1-6-3c-1 0-2 2 0 2v1l2 1-1 1-2-1c-2-1-3 1-1 2l1 1h1l7 5c8 6 13 7 21 12 1 1 3 0 3-1v-1l-1-4 2 1 1 1v-1l-4-4 4 2 1 1v-2l-4-5 4 3c1 1 2 0 1-1l-4-5 4 3c1 1 2 0 2-1l-3-4 2 2c1 1 2 0 1-1l-3-4 4 3 1-1-4-5 2 1 2 2c1 1 2 0 1-1v-1a55 55 0 0 0 8 0l1-1 1-1 2-5 3-8 5-8c1-6 0-9-1-15l-1-7c0-5 1-10-2-13l1-4 4-24v-5-27l-2-16c-1-7-4-13-10-17l-1-1h-6c-11 0-20 1-28 4 6-6 9-11 10-20 1-6 2-10 5-15 3-6 5-10 5-16l1-1v-5-4-1-2-1h-1c-1 7-2 12-8 16-3 2-7 1-10 2 4-7 3-14 5-23 2-4 4-7 8-7h1v-2l-2-2-7-2c-2 0-5 1-6 3l-2-8c0-2 0-4 2-4l1-2 1-1c-5-5-12-6-18-3-3 1-4 3-6 5l-1-4-1-1-1-4-1-1c-2-7-2-14-1-22 0-10 1-15 4-24 5-15 12-27 27-31 19-4 26-1 36 12l5 14c-3-4-5-7-10-10l-9-4h-11c-21 3-31 20-27 37 4 20 22 31 42 30l15-4c2 7 4 10 5 17v8c-4 11-5 17-6 28a53 53 0 0 0 7 43h1v1h1c3 2 6 2 8 0 3-5 1-10 2-16 3-13 5-23 16-29 8-4 14-7 23-6l10 2c2 1 3-1 3-3v-1c-2-9-6-13-13-19-9-8-15-12-26-15h-11l-2-4-3-17-1-1 7-13c14-38-3-81-42-96-30-12-58-8-85 9-15 9-33 23-44 38-10 14-23 35-28 58-2 3-4 6-4 11l-3 1-1 1-2 2-1 1-3 3-1 2-3 3-2 3-2 10c-5 5-7 9-6 16 1 8 4 11 6 18l-3 7c0 7 0 11 3 17l5 12c-6-6-10-9-18-13-2-1-3-3-6-3l-4-2-7-1-2 2c-3 2-4 4-6 8l-7 12-4 20v11a132 132 0 0 0 3 28l4 14 2 3 1 3 3 5v1l5 5v1l1 1 8 6c-3 9-8 14-11 24l-3 17c-2 1-4 1-5 3-2 2-1 5 1 6l4 1 3 15c2 8 5 12 9 19l-1 1 1 8 1 2c2 2 5 4 6 2 2-3 1-6 1-10 3-2 5-4 6-7l3-9c3-9 3-14 4-21l4 1c3-2 4-5 3-7-2-3-4-4-7-4a494 494 0 0 0-1-12l-4-12c-2-7-6-10-6-17l6-5c3-3 5-5 5-10l-1-1-1-2" fill="#1e59ae" fill-rule="evenodd"/><path d="M1321 4561l-2-5-1-1 1-2-1-4-2-1v-2l-3-3h-2l1-4-1-30 3 5c6 7 11 10 16 18l8 18c-3 2-3 5-5 8v11l2 6c5 10 15 9 23 16l5 5 1 1 1 4v1c-2 9-4 13-4 22v3c0 5 1 9 4 13l3 3c0 5 1 8 3 12l3 5 1 1 2 2h1l6 3c6 0 8 6 14 8 4 2 9 0 12-4l3 1c5 0 8 1 13-2 4-1 5-4 8-7l3-5 4-6 1-3 2-1c-1-2 1-3 2-5 6-8 12-10 15-19 3-8 3-14 2-22l1-12h1c5-7 6-13 6-22v-10l1-3 3-5v-2l3-2c10-5 14-11 20-19l1 11v3c2 10 3 16 3 26v7l-1 8-2 2-3 9-1 3-8-3h-1v1c-2-1-3 2-1 2l3 2v1l-4-1c-1-1-2 1 0 2l5 3-6-2c-1-1-2 2-1 2l7 4-7-3-1 2 7 5v1l-7-4c-2 0-3 2-1 3l6 3-6-3c-2 0-3 2-1 3l5 3-5-2c-2-1-3 1-1 2l5 3-6-2c-1-1-2 1-1 2l5 3-5-2c-1-1-2 1-1 2l8 4-8-3c-2-1-3 1-1 2l5 3-6-2h-1v2l9 5h-1l-9-4c-1-1-2 2 0 2l7 5-8-4c-2 0-2 2-1 3l7 4-8-3c-1-1-2 1-1 2l6 3-1 1-6-3c-1 0-2 2 0 2v1l2 1-1 1-2-1c-2-1-3 1-1 2l1 1h1l7 5c8 6 13 7 21 12 1 1 3 0 3-1v-1l-1-4 2 1 1 1v-1l-4-4 4 2 1 1v-2l-4-5 4 3c1 1 2 0 1-1l-4-5 4 3c1 1 2 0 2-1l-3-4 2 2c1 1 2 0 1-1l-3-4 4 3 1-1-4-5 2 1 2 2c1 1 2 0 1-1v-1a55 55 0 0 0 8 0l1-1 1-1 2-5 3-8 5-8c1-6 0-9-1-15l-1-7c0-5 1-10-2-13l1-4 4-24v-5-27l-2-16c-1-7-4-13-10-17l-1-1h-6c-11 0-20 1-28 4 6-6 9-11 10-20 1-6 2-10 5-15 3-6 5-10 5-16l1-1v-5-4-1-2-1h-1c-1 7-2 12-8 16-3 2-7 1-10 2 4-7 3-14 5-23 2-4 4-7 8-7h1v-2l-2-2-7-2c-2 0-5 1-6 3l-2-8c0-2 0-4 2-4l1-2 1-1c-5-5-12-6-18-3-3 1-4 3-6 5l-1-4-1-1-1-4-1-1c-2-7-2-14-1-22 0-10 1-15 4-24 5-15 12-27 27-31 19-4 26-1 36 12l5 14c-3-4-5-7-10-10l-9-4h-11c-21 3-31 20-27 37 4 20 22 31 42 30l15-4c2 7 4 10 5 17v8c-4 11-5 17-6 28a53 53 0 0 0 7 43h1v1h1c3 2 6 2 8 0 3-5 1-10 2-16 3-13 5-23 16-29 8-4 14-7 23-6l10 2c2 1 3-1 3-3v-1c-2-9-6-13-13-19-9-8-15-12-26-15h-11l-2-4-3-17-1-1 7-13c14-38-3-81-42-96-30-12-58-8-85 9-15 9-33 23-44 38-10 14-23 35-28 58-2 3-4 6-4 11l-3 1-1 1-2 2-1 1-3 3-1 2-3 3-2 3-2 10c-5 5-7 9-6 16 1 8 4 11 6 18l-3 7c0 7 0 11 3 17l5 12c-6-6-10-9-18-13-2-1-3-3-6-3l-4-2-7-1-2 2c-3 2-4 4-6 8l-7 12-4 20v11a132 132 0 0 0 3 28l4 14 2 3 1 3 3 5v1l5 5v1l1 1 8 6c-3 9-8 14-11 24l-3 17c-2 1-4 1-5 3-2 2-1 5 1 6l4 1 3 15c2 8 5 12 9 19l-1 1 1 8 1 2c2 2 5 4 6 2 2-3 1-6 1-10 3-2 5-4 6-7l3-9c3-9 3-14 4-21l4 1c3-2 4-5 3-7-2-3-4-4-7-4a494 494 0 0 0-1-12l-4-12c-2-7-6-10-6-17l6-5c3-3 5-5 5-10l-1-1-1-2z" fill="none" stroke="#1e59ae" stroke-width="2"/><path d="M1292 4534v-2c0-4 2-6 3-10l1-2a2049 2049 0 0 1 0 19l-2-2-1-1-1-1v-1zm218-168c-6 5-14 5-19-3-2-4 1-8 6-9 7-1 11 6 13 12zm-195 199l-1-5-1-1v-2l-1-4-1-1-1-2-2-3-2-1v-3-30l3 4c6 8 10 11 15 19l9 18c-3 2-4 5-5 8l-1 11 2 6c5 10 16 8 24 16l5 5v1l1 4v1c-1 9-3 13-3 22v2c0 6 1 9 4 14l2 3h1c0 4 0 8 2 12l4 4 1 1 2 2h1c1 2 3 3 6 4 6 0 7 6 13 7 5 2 10 1 13-3h3c5 0 8 2 12-1 5-1 6-4 9-8l3-4 3-7 2-2 1-2c0-2 2-3 3-4 5-8 12-10 15-19s3-14 2-23c-1-4-1-7 1-11v-1c5-6 7-12 7-21v-10l1-4 3-4v-2l3-2c10-6 14-11 19-19l1 11 1 2c1 11 3 17 3 27l-1 4 1 3-1 8-2 2-3 8-1 4-8-3h-1s-1 0 0 0v1h-1c-1-1-2 1-1 2l3 2 1 1-4-2c-1 0-2 2-1 3l5 3-5-2c-2-1-2 1-1 2l7 4-7-3c-2-1-3 2-1 2l7 5-8-3c-1-1-2 2 0 2l5 4-6-3c-1 0-2 2-1 3 3 0 4 2 6 3l-6-3c-1 0-2 2-1 3 3 0 4 2 6 3l-6-3c-2 0-2 2-1 3 2 0 3 2 5 3l-5-3c-2 0-3 2-1 3l7 4-8-3c-1-1-2 1-1 2l6 3-7-2c0-1 0 0 0 0v2l8 4v1l-9-4c-1-1-2 1-1 2l8 5-8-4c-2-1-3 2-1 2l6 4-7-3c-2 0-2 2-1 3 2 0 3 1 5 3h-1l-5-2c-1-1-2 2-1 2h1l2 2h-2l-2-1c-1 0-2 2-1 3h2v1l8 5c7 6 13 6 21 12 1 1 2 0 3-1v-1l-2-4 3 1h1v-1l-4-3 3 2h2l-1-1-4-5 5 3 1-1-5-6 5 4c1 1 2-1 1-1l-3-4 3 2c1 1 2 0 1-1l-3-4 3 3 1-1-3-5 1 1 3 2 1-1-1-1a51 51 0 0 0 8 0l1-1 2-1 1-5 4-9 4-7c2-6 0-9 0-15l-1-1v-6c-1-5 1-10-2-13v-4l4-24 1-5v-27l-2-16c-2-7-4-13-11-17l-1-1h-6c-10 0-19 1-27 4 5-6 9-11 10-20 0-6 1-10 4-16 3-5 6-9 6-15v-2l1-4v-4-1-3h-1c0-1 0-1 0 0h-1c0 7-2 12-7 16-4 2-7 1-10 2 4-8 2-15 5-23 1-4 4-7 7-7h1l1-1v-2l-2-1c-3-2-5-2-7-2-3 0-5 1-6 3l-2-8 1-4 1-2c1 0 2 0 1-1-5-5-11-7-17-4-3 2-5 3-6 6l-2-4v-1l-1-4-2-2-1-22c1-9 2-14 5-23 4-15 11-27 27-31 18-5 26-2 36 11 2 5 4 10 4 15-2-5-5-7-9-10-3-2-6-4-9-4h-12c-20 2-30 20-26 37 4 19 21 31 42 30l15-4 4 17 1 4v4c-4 10-5 17-7 28a53 53 0 0 0 8 42v1l1 1h1c3 1 6 2 7 0 4-6 2-10 3-17 2-12 5-22 16-28 8-5 13-7 23-6 4 0 6 0 10 2 2 0 3-2 2-3l1-2c-2-8-7-13-13-19-9-7-15-11-27-14h-10l-2-4-4-17v-1c3-4 5-8 6-13 14-38-3-81-41-96-30-12-59-8-86 8a171 171 0 0 0-72 96l-4 12h-2l-1 2-2 2-1 1-3 3-2 2-2 3-2 2-2 10c-5 5-7 10-7 17 1 7 5 11 7 17-1 3-3 5-3 8 0 7 0 11 3 17l5 11c-6-5-10-8-18-12l-6-4-4-1-7-1-3 1c-3 2-4 5-6 8-2 5-5 8-6 13-3 7-3 12-4 19v12a131 131 0 0 0 2 28l5 14 1 3 2 3 2 5 1 1 4 5 1 1 1 1 8 6c-4 9-9 13-12 23l-3 18-5 3c-2 1-1 5 2 6l3 1h1l2 14c2 8 5 12 9 19v10l2 1c1 3 4 5 6 3 2-3 1-6 0-10 3-2 5-4 7-8l3-9 3-20h5c2-1 4-4 2-7-1-3-4-3-7-4v-6l-1-5c0-4-2-8-4-13-2-6-5-10-5-16l5-5c3-3 5-6 5-10v-1l-2-2" fill="#fbbc09" fill-rule="evenodd"/><path d="M1401 4626l-1 3v1l1 1 4 2 5 1h4l3-1 2-1-1-2h-5l-1-2h-1-1a3 3 0 0 0-2 0v2l-4-1v-3-3-1-1-2-3l1-2c1-1 0-2-1-1 0 2-2 2-3 4v9zm-7 3l1-9v-2h-1v11s0 1 0 0zm-7 1v-1l-1-1c-1-2-3-1-3 1v1h-4c-2-1-3 1-1 2l6 3c3 0 5-1 8-3l1-1-1-1-1-1-4 1zm13-20l2 1c2 0 2-2 1-2h-1c-1-1-2 0-2 1zm-6 1h2l1-1s0-2-1-1h-1l-1 1v1zm1-15h2l5 1c1 0 2-3 0-3l-5-1-2 1v2zm-6 6l3-1 1 1 3 1 3-1 3 1 3-2h1l2 1v-1l-2-2-2 1h-3l-2-1-3 1-2-1h-3l-3 2 1 1zm44-177v-1l-2-1-7-6c-5-4-11-6-19-6l-12 1-6 1-6 2c-10 3-14 9-21 16v1l1-1h1c8-11 23-11 36-10 9 1 14 3 22 8 2 2 10 4 4-4-8-6-15-9-25-10h-1 7c11 1 20 5 26 14l2 7-4-2v1l4 4 1 2-6-4-1 1 6 6 1 1-5-3s-2 0-1 1v1l6 4-1 3-6-5c0-1 0 0 0 0l6 8v2l-3-3-4-3s-1 0 0 0l3 5 3 4v4l-2-3-5-5c-1 0-2 1-1 2 2 1 3 2 4 5l2 2v2l2 1-1 4c-1-4-4-6-6-9-1-2-3 0-2 1 3 4 5 6 6 11l3 9v2l-2 7h-1c-7-1-12 0-18 3s-8 8-10 15v4s2 0 1-1l1-3c2-5 5-8 10-11s9-3 15-2c0 5 1 9 3 14l1 4c0 8-1 12-5 18 0 1 1 2 2 1 4-7 7-11 7-19l-2-5c-1-6-3-9-3-14v-1-1-2l2-2a53 53 0 0 1 0 3c1 11 10 17 6 28l-3 7c-3 5-2 9 1 15v-1c-1-5-1-8 1-13l5-7c3-11-7-18-7-29v-3c-1-6 1-9 1-15 0-7 2-11 3-18l1-3a35 35 0 0 0-8-29zm40-148l3 3-5-1c-4-2-7-2-11-2l5 2-6 1-1-1-5-1h-6v2h6l1 1-7 2c-2-2-3-3-5-3l-8 1c-1 0-1 0 0 0l8 2h3l-7 2-2-1h-12v2c5 0 7-1 11 1l-7 3-2-1c-5-1-7 0-12 1v1c4-1 7 0 11 1l-6 3-7 1v1h4l-5 5-3-2-4 1v2h5c-16 15-27 35-35 60-2 5 5 7 6 2 14-41 33-71 76-79 17-4 36-3 52 3v-1l-28-8-1-1-5-2h-1zm0 15l3 2h1c1 2 4 0 2-2l-1-2-4-1c-2-1-3 3-1 3zm-11 4c2-1 3 0 5 1s5-2 2-4c-2-2-4-2-8-1-2 0-1 4 1 4zm-15 1c2 0 3 1 4 3 2 2 5 0 3-2-2-3-5-5-8-4s-2 4 1 3zm-11 6c2 0 3 0 5 2 1 1 3-2 2-3-2-2-5-1-7 0v1zm-13 3l5 1c2 0 3-3 1-3l-6-1c-2 0-2 3 0 3zm-25 2c1-1 3-2 5 0 1 1 3-1 1-3s-5-1-8 1c-1 1 0 3 2 2zm-10 8c2-1 3 0 5 1 2 2 4-2 2-3-3-2-6-3-9-1-1 2 1 4 2 3zm-10 9c2-1 5-1 6 1 2 2 4-1 3-2-3-3-7-3-10-1-1 1 0 3 1 2zm-8 9c2-2 5-1 8 0 2 1 3-2 1-3-3-2-7 0-10 2l1 1zm51 25c2-1 3 1 5 2s4-1 2-3-5-1-7 0v1zm13-41c2 0 3 3 5 5s5-1 3-3c-2-3-5-2-8-2-1 0-1 1 0 0zm-13 4c2-1 4-1 5 1s4 1 3-2-5-3-8-2c-2 0-2 3 0 3zm-11 2c2-1 4 0 5 1 1 2 4 0 3-2-2-2-6-1-8 1-1 0 0 1 0 0zm12 10h5l1 1c1 2 4 0 2-2l-1-1c-2-3-5-2-8-1-2 1-1 3 1 3zm-17-2l1 1c4 0 6 0 9 2 1 0 2-1 0-2-3-2-5-3-9-3l-1 1v1zm12 12c2-2 4 0 6 1 2 2 5-1 3-3-3-2-7-3-11-1-1 1 0 4 2 3zm-16 0l4-1 2 1c2 1 4-2 2-3l-4-2-5 2c-2 1 0 4 1 3zm14 5l6 3c1 2 4-1 2-2-2-3-5-2-8-1 0 0 0 1 0 0zm-12 6l4-1h2l2 2c2 1 3-2 2-3l-3-2h-3l-5 2 1 2zm-33-12c2-1 3 0 5 1h1c2 1 3-1 1-2l-1-1h-7c-1 0-1 2 1 2zm-5 7l4-1 5 2 1-1-5-4-6 2c-1 1 0 2 1 2zm-6 8l6-1 3 2c2 1 3-2 2-3l-4-2c-3-1-5 1-7 3v1zm47 43c2-5 2-9-1-14l-3-1v1l1 2c3 4 4 7 2 12h1zm-8 168l3 1c2 0 4-2 2-3h-6c-1 1 0 3 1 2zm-36-57c3-1 1-4-1-3s-2 4-1 6c2 1 4-1 2-3zm30-60c4 1 6 3 10 2l3-4c0-1-1-3-2-2-1 2-1 3-3 3h-7l-1 1zm2-3h2l4-1v-1h-4-2v2zm61 4c0-2 2-3 4-4l8-9 2-5v-24-5l1-3c1-1 0-1-1-1l-3 2v30l-2 4c-2 4-4 5-7 8-2 2-3 4-3 7h1zm-78-76l-1-4-1 1v4c0 1 3 1 2-1zm-5 2l1-7c0-2-3-2-3 0l2 7zm-3 0l-1-5v-2c0-2-3-2-3 0v2l2 6c1 2 3 1 2-1zm-4 2c-3-3-2-6-2-10 0-2-3-2-3 0 0 5 1 8 4 11 1 1 2 0 1-1zm83 193c1-5 5-7 5-13 0-7-7-10-9-16l-1-8h-3l1 8 3 7 2 7 1 6-2 10v1c-2 1-3 4-4 7h1c1-5 6-7 12-7 2-1 1-4-1-4l-5 2zm-2-61c0-6 0-9-2-14l-3-12c-1-13 5-21 3-34h-1c3 13-6 21-4 34 0 5 2 7 3 12l2 14h2zm-125-24l2 2 2 2c5 5 7 8 10 14l2 3 3 6c1 1 3 0 3-1l-4-7-1-2-12-14-2-2-3-1c0-1 0 0 0 0zm-13 131l-8-20h2l2 3c3 4 3 6 4 11h1c-1-5 0-8-2-12-2-2-2-5-4-6-4-1-7 2-8 6l-4 10-1 12v14c0 6 2 10 4 16l4 7 2 3h2l-2-4c-2-2-2-4-3-7l-2-7 7 11h1c-4-7-6-11-8-18l7 12 1-1c-4-7-6-11-8-19l7 12h1c-4-7-6-11-8-18l7 12h1l-8-20 8 13c0 1 1 0 0 0l-7-18 8 14 1-1c-3-5-5-9-6-14l6 12 1-1-7-16 8 14h1zm159-112h-1l-2 6v8h1c-1-3 0-4 1-7 1-2 1-4 3-5l-1 2c-1 3 0 5 1 8h1c-1-3 0-5 1-8 0-2 1-3 3-4l-1 2v8h1l1-7 4-6-1 3v8h1l1-7 4-5v-2c7-2 10-3 17-3-7 0-11-1-17 1l-6 2-6 2-4 3-1 1zm-50 93c3 1 4 3 6 6l1 1-5-2v1l5 5-4-2-1 1 6 6 1 3 2 4v2l-1 5v9h-2l-2 1c-2 0-3 2-4 3-4 1-6 3-7 6-2-3-8-4-13-3v1c-2-2-4-2-7-1-2 0-3 2-3 3-1-3-2-6-6-7h-4v-1l-2-3-4-1 1-2v-6l-1-2-1-2v-2-4-4l6-14 4-8 2-2c2-2 3-4 6-5 3-2 6-2 9-2 5 0 8 2 12 4l5 4 4 3-3-1c-1-1-2 0-1 1 3 1 4 3 5 5l-3-2-1 2zm14 20c-1 0 0 0 0 0zm77-278l6 7-1 2-5-5h-1c3 2 5 4 6 7l-1 2v1c-4-6-9-10-16-9-9 1-13 12-9 19 7 11 20 9 28 1 13-10 12-30 5-43-11-15-24-19-42-15-18 5-26 18-31 35-3 10-4 15-4 25-1 8-1 15 1 21-1-2-3-2-3-1v-1l-2-1-1-5v-6c0-5 1-23 3-31 1-6 3-13 7-18 5-9 8-11 16-17a49 49 0 0 1 50-1l1 1c5 4 11 10 14 16a63 63 0 0 1-3 39c0 1-3 8-6 9-6 6-12 11-20 10l-8-1v1l9 2c10 1 15-2 22-8l8-11 5-20a44 44 0 0 0-10-36c-4-4-9-8-15-11-4-2-8-3-13-3h-4c-13-1-25 1-34 8a61 61 0 0 0-25 39c-1-1-4-2-6-1v1c3-1 4 1 6 3l-1 4h-6v1c2-1 3 0 4 2h2l-1 10h-10l-1 2c6 0 7 0 11 3-5-2-9-2-15-2v1c6 1 9 3 14 5-5-2-10-1-16-2v2l10 2h-9l-1 1h-8l2-8-1-1c-2 3-3 7-3 10l-2-1c-1-3-1-7 2-10 0-1-1-2-2-1-2 3-3 6-3 10-3-4-3-9 0-13 1-1-1-2-1-1-3 4-4 8-3 12-2-2-3-4-2-7 0-5 0-8 5-10l-1-1c-4 3-7 6-8 11 0 5 0 11 5 14l8 3c4 2 8 6 6 10-1 1 1 2 2 1v-10-2l-1-1-2-2-1-2 9 2h2c3 1 5 3 5 6v7l-2 2c-1 1 1 3 2 2l3-3 1-8-2-5 2 1c3 6 2 9 0 15l-4 9h1c1-4 4-5 5-9 2-5 2-9-1-14 3 2 4 4 4 7l1 1v1l-2 8-1 6 3-5 2-6h2l-1 3c0 3 0 5-2 9v3l3-2 2-9 1-5v8c0 6-2 9-3 15h1c1-6 6-9 6-15v-5l-1-3 1 2v7l-1 11-1 9v1c1-4 4-5 5-9l1-12c1 9 1 16-3 26h2l4-14-1 8c0 3 0 5-2 8-1 2 2 3 3 1l4-8v-14c1-4 2-7 6-9s9-3 13-1l-1 1c-3 1-4 4-3 8 2 9 2 14 1 23-2 7-4 10-9 16s-11 8-12 16l1 1c1-8 8-10 13-16 5-5 8-9 10-16l1-15 6-2 5 1 1 1c-4 0-7 3-8 7-3 9-2 16-9 24l-7 9c-6 6-10 7-15 13 1-7 3-13 3-22v-1l6-7 4-9 1-8v-1l-1-8c0-3 0-5-2-8 0-2-3-1-2 1l2 7c0 8-1 13-5 19l-6 5-1-1c-1-1-2 0-2 1l2 3v1l1 6c0 13-6 20-3 32 1 6 3 9 3 15v10c-1 6-4 10-7 17-3 10 5 16 10 25l3 11v2l1 2-1 2a39 39 0 0 0-1 6h2c1-5 4-8 7-11v1 10c0 6-1 11-4 15v1l-2 3-2 2-1 1h-1l-3 3-2 1-3 3-6 5v1l-3-12c-3-7-3-11-4-18l2-4c2-3 2-6 1-9v-3l-3-6-2-4c-2-6-5-9-4-15l4-11c1-1-1-2-2-1l-4 9-2 3v-2c0-6 2-10 5-15l2-6-1-6c0-2-2-2-2 0l-1 6-1 5c-3 6-5 9-5 16l1 5-1 5c-2 11 5 18 5 29l-7-6c-1-1-2 0-1 1 4 3 5 6 8 10v2l-8-8-1 1c5 3 6 6 8 11l1 1v1c-2-4-5-6-9-8-1-1-1 0-1 1 5 3 6 6 8 10l1 1-9-7v1c4 2 5 5 7 9l-3-2-5-4c-5-2-8-4-14-4l-8 1c-1-6-4-9-9-13-1-1-1 0-1 1 5 3 7 7 8 14h-1c0-6-4-10-9-14l-1 1c5 4 8 8 8 14l-2 4-1-6c-1-5-5-10-11-10h-5-2a43 43 0 0 1-19-9l-7-7c-6-8-6-15-12-24-5-8-10-11-15-19l-5-5h-1v-16l-1-6v-2l-1-1-3-1-3 1-2 1v2l-1 1 1 2-1 6v3l-3 21c-1 4-3 6-3 11v1l-3-1c0-1 0 0 0 0l1 2 3 4 2 1 2 3 2 3 3 2v1l1 2c-1 1 2 3 3 1l2-1 1-1 2 2v2l-5 4c-1 1-1 2 1 1 2 0 5-1 6-3v2c0 2 0 4-2 5l-5 2v2l6-1 2-2v4c-2 3-5 3-8 5-2 2 0 3 2 2l8-4-3 6-5 5h-1c-4 1-8-2-12-5l-2-2-3-5-3-6-1-3-2-3-5-13-2-5v-20l1-6 1-8 3-19 7-12c1-3 2-6 6-8h7l1 1c3 0 5 2 7 3 9 5 12 10 20 17l9 11 7 12 1 1 3 13c1 4 3 6 2 10l-1 2c0 2 2 3 3 1l1-2c2-4-1-5-2-10l-1-4v-10c2-7 6-12 13-14h10l-10 5 1 1c4-2 7-4 12-4l2 1 3 2-11 3 1 1c4-3 8-2 13 0h1-1l-8 2c-1 1 0 2 1 2l7-1h3l1 3h-6v1l3 1 3 1 1 2-1 4-1 3c-1 2 0 4 1 2l3-5v-6c-1-15-14-26-29-23l-7 3c1-3 2-5 1-10-2-9-4-13-5-22-1-11-1-20 7-28l-1-1c-9 9-11 17-10 29 0 6 1 10 3 14l-3-3-1-4c-3-5-5-6-6-13l-1-8c0-1-1-3-1-1l-1 8c0 6 2 10 5 16 0 1 4 8 5 16v3l-1-2c-1-7-6-9-9-16l-3-9c-1-6-2-9 0-15h-1c-2 6-3 10-2 16l3 10 7 15 1 3-8-8-4-3h-1c0-5-2-8-4-13-3-6-3-10-3-16l1-5 1 6v1h1v-1-7c-2-8-6-11-6-19l-1-6 1 4 1 4 1 3 5 4v1l1 1v-1l2-7c0-4-1-6-3-10v-3a23 23 0 0 1 0-16v1c-1 5 1 8 2 12l2 7h1l-1-7c-1-4-2-7-1-11v-3l3-5v4c-1 8 2 13 4 21 2 7 1 11 1 18 0 2 2 2 2 0 0-7 2-12 0-19s-4-12-4-20l1-2 1 7c2 5 5 7 5 13l-1-11v-4c0-3 2-5 4-8l1 9c1 5 2 8 1 13h1l2-14c2-5 5-9 6-15l2-5 1 3c2 2 3 4 6 5l8 6c0 2 1 5 3 7l1 1c2 1 4-2 3-4-4-4-6-9-3-13l6-6-1-1c-3 2-5 2-7 5l-2 6-6-6-4-3c-1-3-2-5-5-7-1-2-3-1-3 2l-3 9-3 13c0-4 0-7 2-12v-3c1-2-3-3-3-1l-1 2-1 1-2 5c2-23 20-57 32-71 10-14 28-29 42-38 26-15 52-19 80-8 37 14 51 52 39 90-4 15-15 24-31 25-17 2-32-9-36-26-3-14 6-29 21-32h11a20 20 0 0 1 10 5l3 9-5-4-1 1zm-76 283v-1l2-2c2 0 3 2 3 4v1l-1 3h1l2-2 1-2c0-3-1-6-4-7l2-2 2 3 1 2 2 2c0 1 1 0 0 0v-3l-1-2-3-4 1-1 4 6h1l-4-7 2-1 3 5 1-1-3-5 1-1 2 2 1-1-1-2 7-6v1c1 8 1 13-2 20-3 8-8 11-13 18v-4l-1-1c-1 6-2 10-5 15l-4 6-3 4c-2 3-3 6-7 7-4 2-7 1-11 1l-2 1 1-3c0-1-2-2-3 0-1 5-6 8-11 6-6-1-8-8-14-8-3-1-6-1-8-3l-4-6-1-12v-3h-2l-1 3c-1-1-2-1-2-3-3-4-4-7-4-13v-2c0-9 4-13 6-21l-1-7-3-4h-1l-3-3c-8-7-18-6-23-16l-1-5v-9l4-5 2 2 7 7c1 7 4 11 10 15s11 8 11 15h1c0-8-3-14-10-19l-7-7c5 3 10 4 16 5l2 1h3l1 2c4 2 3 7 3 11v6l-1 2-1-8-2-7c-2-3-4-5-7-6h-6c0-1 0 0 0 0l5 3 5 4 2 6c1 7 2 9 0 15v1l-1 5c0 3-2 5-3 8-2 4-3 7-3 12l1 4 1 3 1-1-1-2v-4c0-4 2-7 4-11l1-2 1 9h1v1l1 3v8l-2 2h5l1 1v2c-1 0 0 2 1 1h2l4 1c2 0 4 2 4 5l1 6h1v1h1c-1-4 0-8 3-8h4l3 4 2-1-2-4c4-2 8 2 10 6 0 2 0 4-2 5-1 1 0 3 2 3 3-2 5-6 4-10l2-5h1l1-1h1c1 0 2-1 1-2l3-2h2c2-1 3 0 4 1 2 3 2 6 0 9l1 1c3-4 4-9 1-12l-3-2c-1-3 1-5 1-9l2-4 1-1zm-117-61l-1-5-1-1v-2l-1-4-1-1-1-2-2-3-2-1v-3-30l3 4c6 8 10 11 15 19l9 18c-3 2-4 5-5 8l-1 11 2 6c5 10 16 8 24 16l5 5v1l1 4v1c-1 9-3 13-3 22v2c0 6 1 9 4 14l2 3h1c0 4 0 8 2 12l4 4 1 1 2 3 1-1c1 2 3 3 6 4 6 0 7 6 13 7 5 2 10 1 13-3h3c5 0 8 2 12-1 5-1 6-4 9-8l3-4 3-7 2-2 1-2c0-2 2-3 3-4 5-8 12-10 15-19s3-14 2-23c-1-4-1-7 1-11v-1c5-6 7-12 7-21v-10l1-4 3-4v-2l3-2c10-6 14-11 19-19l1 11 1 2c1 11 3 17 3 27l-1 4 1 3-1 8-2 2-3 8-1 4-8-3h-1s-1 0 0 0v1h-1c-1-1-2 1-1 2l3 2 1 1-4-2c-1 0-2 2-1 3l5 3-5-2c-1-1-2 1-1 2l7 4-7-3c-2-1-3 2-1 2l7 5-8-3c-1-1-2 2 0 2l5 4-6-3c-1 0-2 2-1 3 3 0 4 2 6 3l-6-3c-1 0-2 2-1 3l6 3-6-3c-2 0-2 2-1 3 2 0 3 2 5 3l-5-3c-2 0-3 2-1 3l7 4-8-3c-1-1-2 1-1 2l6 3-7-2c0-1 0 0 0 0v2l8 4v1l-9-4c-1-1-2 1-1 2l8 5-8-4c-2-1-3 2-1 2l6 4-7-3c-2 0-2 2-1 3 2 0 3 1 5 3h-1l-5-2c-1-1-2 2-1 2h1l2 2h-2l-2-1c-1 0-2 2-1 3h2v1l8 5c7 6 13 6 21 12 1 1 2 0 3-1v-1l-2-4 3 1h1v-1l-4-3 3 2h2l-1-1-4-5 5 3 1-1-5-6 5 4c1 1 2-1 1-1l-3-4 3 2c1 1 2 0 1-1l-3-4 3 3 1-1-3-5 1 1 3 2 1-1-1-1a51 51 0 0 0 8 0l1-1 2-1 1-5 4-9 4-7c2-6 0-9 0-15h-1v-7c-1-5 1-10-2-13v-4l4-24 1-5v-27l-2-16c-2-7-4-13-11-17l-1-1h-6c-10 0-19 1-27 4 5-6 9-11 10-20 0-6 1-10 4-16 3-5 6-9 6-15v-2l1-4v-4-1-3h-1c0-1 0-1 0 0h-1c0 7-2 12-7 16-4 2-7 1-10 2 4-8 2-15 5-23 1-4 4-7 7-7h1l1-1v-2l-2-1c-3-2-5-2-7-2-3 0-5 1-6 3l-2-8 1-4 1-2c1 0 2 0 1-1-5-5-11-7-17-4-3 2-5 3-6 6l-2-4v-1l-1-4-2-2-1-22c1-9 2-14 5-23 4-15 11-27 27-31 18-5 26-2 36 11 2 5 4 10 4 15-2-5-5-7-9-10-3-2-6-4-9-4h-12c-20 2-30 20-26 37 4 19 21 31 42 30l15-4 4 17 1 4v4c-4 10-5 17-7 28a53 53 0 0 0 8 42v1l1 1h1c3 1 6 2 7 0 4-6 2-10 3-17 2-12 5-22 16-28 8-5 13-7 23-6 4 0 6 0 10 2 2 0 3-2 2-3l1-2c-2-8-7-13-13-19-9-7-15-11-27-14h-10l-2-4-4-17v-1c3-4 5-8 6-13 14-38-3-81-41-96-30-12-58-8-86 8a171 171 0 0 0-72 96l-4 12h-2l-1 2-2 2-1 1-3 3-2 2-2 3-2 2-2 10c-5 5-7 10-7 17 1 7 5 11 7 17-1 3-3 5-3 8 0 7 0 11 3 17l5 11c-6-5-10-8-18-12l-6-4-4-1-7-1-3 1c-3 2-4 5-6 8-2 5-5 8-6 13-3 7-3 12-4 19v12a131 131 0 0 0 2 28l5 14 1 3 2 3 2 5 1 1 4 5 1 1 1 1 8 6c-4 9-9 13-12 23l-3 18-5 3c-2 1-1 5 2 6l3 1h1l2 14c2 8 5 12 9 19v10l2 1c1 3 4 5 6 3 2-3 1-6 0-10 3-2 5-4 7-8l3-9 3-20h5c2-1 4-4 2-7-1-3-4-3-7-4v-6l-1-5c0-4-2-8-4-13-2-6-5-10-5-16l5-5c3-3 5-6 5-10v-1l-2-2zm-12-19l-1 1-1-1-2-4h-1l1-5-1-40v-6-2l-1-1h2l2-1 2 1v58zm14 81c2 0 4 0 5 2 0 1 0 2-2 3h-3v-5zm-33 5l-3-1v-3l3-1 1 5zm19-49c1 7 5 10 7 17l3 12 1 5c1 15 0 22-4 36l-3 9c-1 3-2 5-5 7l-1 2c0 3 2 5 0 8l-2-1v-1l1-8-2-2c-5-7-7-11-8-19a70 70 0 0 1 12-65h1zm183 70v1l1 1v3l2 4c-7-4-12-5-19-10l-5-3 2-1 2-1 1-1c7-5 10-11 13-20l3-10v-6-3h1-1l-2-6-1-2v-1l7 4h1l2 2 11 9 1 1c-3-1-6 1-7 3l-2 1c-3 0-4 1-5 4l1 2c-3 0-4 1-4 4v1l1 1 2 1-5 4c-1 2 2 4 4 5v1c-2 4-4 8-4 12zm8-30l3-3c3 0 5 0 8 2l6 3v-1l-5-3-6-3c1-2 2-2 4-2l5 2h1l1-1-1-1c1-1 2-4-1-5l-1-1-2-3-5-7 3 2c1 1 2 0 1-1l-3-5 4 4c1 1 2-1 1-2l-3-5c-1-2-3-1-3 1l1 1h-3l-2 1-1 4v3l-2-1-2-2v-1l1-3 4-7c1-2 2-3 4-3 2-1 2-4 0-3h-2v-6-3-4c0-10 0-16-2-27l-1-3v-12-1-3-1l1-10h-1l-4 11c-6 10-10 16-20 23l-4 1-2 1-1 1-6 4h-1l-2-6c3 1 7 0 10-1v-1h-1l-7-5-2-4c-4-10-4-20 4-26v-2c13-12 25-14 42-15l4 1 1 1c6 3 8 9 9 15 2 5 1 9 2 15v32l-3 24v2l-2-1 1-10 2-10 1-11v-7c0-11 0-18-2-29h-1c2 11 0 18 0 29l-1 7v9l-2 12v9h-1c-3 1-4 3-5 6-1 1 1 2 1 0l4-2 4 1c3 3 2 7 2 12l2 11 1 1-1 9-4 8-4 8-1 5h-4c-5 0-8 0-12-2h-1c-2-1-4-2-3-3 0-2 3-3 5-3h1l3 2 4 1 5 1v-2l-5-1-3-1-4-2-5-2c0-2 1-2 3-3 3 0 5 0 8 2l6 3v-2l-5-2c-3-2-5-4-8-4zm33-175c0-11 5-17 8-27l2-4a25 25 0 0 1 2 6c0 1 1 2 1 0v-2l-1-6 3 4 3 3 2 4 2 1-3-6-2-3 11 9c1 1 2 0 2-1l-10-9 6 2 7 6 1-1a36 36 0 0 0-12-11l10 5c5 2 8 3 12 7 1 0 2-1 1-2-5-3-6-6-11-8-7-5-11-5-19-8l-6-1v-1l-2-11-3-9-1-1 2-2 3 13 1 6c0 2 3 2 4 2h1l10 2c11 2 16 6 24 13 6 5 10 9 12 16l-9-1c-10-1-16 2-25 7-12 6-14 17-17 31-1 6 1 10-2 15-1 2-3 1-5 0-9-13-8-26-6-42 2-10 4-16 8-26l-1-4-1-2v-5c-1-7-3-11-5-17v-1l4-3 3 9 2 9 1 6 1 1-4 9c-3 10-4 17-4 28zm-17-82c-6 5-14 5-19-3-2-4 1-8 6-9 7-1 11 6 13 12zm-64 161v0zm-18 48zm24-85l3-7c1-4 3-7 7-11l7-6c1 0 0-1 0 0l-9 5c-5 3-8 5-10 10l2-6c4-7 10-8 15-14l5-5 4-2c4-3 8-1 13-4 3-1 4-4 5-6v1c0 6-5 8-8 14s-4 10-5 17c-1 8-5 13-11 20l-5 5-9 7-4 4 1-1c3-6 5-9 9-13 8-6 13-10 15-20 1-2-1-3-1-1-1 4-3 7-6 10l4-14c0-2-1-3-1 0-3 10-6 12-13 16l-2 1 2-4c1-3 3-4 5-6l6-8c2-2 2-4 3-7l-1-1-5 7-6 6-6 7-4 6zm-23 62l1 6v5l-2 6-1 1c-1-10-7-16-5-27l1-5 5 12zm-137-18v-2c0-4 2-6 3-10l1-2a2049 2049 0 0 1 0 19l-2-2-1-1-1-1v-1zm29-118l1 3 1 3c1 4 2 6 1 9l1 4-2-4-1-2-1-4v-9" fill="#b8651b"/><path d="M1449 4162l-1-46-1-2h3l14 1 14-4c4-3 8-6 14-8l13-3 12-1c7 0 12-2 18-6l7-4 6-5 1-2-6-2h-7c-4 1-10 0-14-2-7-3-11-4-18-4a81 81 0 0 0-30 8l-3 3c-3 1-5 3-9 3h-7l-7-1-1-1v-1l-1-53v-1h2l10 1c6 0 10-2 14-3l15-7 12-2h13c7 0 11-1 18-4l7-4 6-5v-2l-6-2h-7l-14-4c-7-3-11-5-18-5a77 77 0 0 0-30 6l-3 2c-3 2-5 3-9 3l-10-1-1-1v-1l-1-16-1-25v-22l-1-8h-1l-8-6c-17-9-26-9-44-8l-19 1-18 3-36 9c-11 1-22 2-37 1a45 45 0 0 1-24-6h-1l-1-1c-4-8-11-11-22-10-4 0-9 1-13 3-3 1-5 3-7 6v1h-1-1c-7 5-16 6-23 6-15 1-26 0-37-2l-36-8-18-3-19-1c-8 0-15 1-22 3l-22 9-9 6v1l1 2 1 7v6l-2 44v1h-1l-8 2c-7 0-12-1-17-3l-7-3-9-3h-2l-3 1h-2v-1l-2-2h-6-1l-12 1c-3 0-6 0-10 2-3 1-7 4-9 7l-3 8v1h-4l-6 1-2 1h-1l2 1h11l1 1 2 5c5 9 15 9 27 8l1-1v1h3l4-1h4v-1l1-1h5l9 3 7 3c5 2 10 3 16 2h8l2-1v2l-1 20v23l-1 1c-6 2-11 3-17 3-7 1-12-1-16-4l-8-3-8-3h-7v-1l-2-1-4-1h-15c-3 0-6 0-10 2-3 1-7 4-9 7l-3 8v2h-10v1l-3 1h1l1 1h11l1 1 2 5c5 10 15 11 27 10h12v-1l1-1h5l9 3 7 4c5 2 9 4 16 4l7-1 7-1 2-1v11c-1 12-3 18-3 29v12l1 1c2-2 4-2 6-1l3 1 2 1 3 3 1 2 2 2 2 1 1 1 2 1 1 2 1 1 2 3 1 1 1 1c1 2 2 3 4 3l1 1 7-1h7l9-1c11 0 19 2 27 5l26 8a241 241 0 0 0 42 8c13 1 23 3 33 2a86 86 0 0 0 32-7h1l1 1c12 5 22 7 33 7l35-1 29-4 12-3 25-8c8-3 16-4 27-4h9l6 1 7 1h2l3-3 2-1 1-2 2-2 1-2a10 10 0 0 1 4-4l2-1 2-2 1-2 3-3 2-2 3-1c2-1 4-1 6 1zm-498-159h-7l-2 1 1-3 2-2c3-2 5-3 8-3l8-1 3-1v2a68 68 0 0 0 0 4v2h-2l-11 1zm1 4h12v2l-1 3v2h-1l-2-1h-8c-3 0-7-1-8-3l-2-3h10zm75-13l-3-1h3v1zm-87 85l-7 1h-2l1-3 2-2c3-2 5-3 8-3h8l3-1v2a78 78 0 0 0 0 4v2h-13zm1 5h12v2l-1 4v1h-3-1l-7-1c-3 0-7-1-8-4l-2-2h10" fill="#fbbc09"/><path d="M1232 3953v1l3 2c23 12 39 11 59 12 12 0 21-2 33-4l11-3c20-4 30-11 50-9l9 1 6 1 6 1v13l1 4 1 16c0 26 2 40 3 66v39l-1 37c-1 15 2 23 2 38v17l-7-2h-15c-21-1-32 5-52 11l-13 3c-12 3-17 4-28 4-25 1-43 3-67-7l-3-2-2 2c-24 9-37 7-63 6l-29-5-13-4c-20-6-31-12-53-12h-16l-7 2v-1l1-7v-11c0-14 3-23 3-37l1-38 1-39 5-66 2-16v-4l1-5-1-1h5l5-1 9-1c20-2 30 4 48 7l12 2c11 2 18 3 28 3 26 0 38 0 61-10l3-2 1-1" fill="#fff"/><path d="M1232 3953v1l3 2c23 12 39 11 59 12 12 0 21-2 33-4l11-3c20-4 30-11 50-9l9 1 6 1 6 1v13l1 4 1 16c0 26 2 40 3 66v39l-1 37c-1 15 2 23 2 38v17l-7-2h-15c-21-1-32 5-52 11l-13 3c-12 3-17 4-28 4-25 1-43 3-67-7l-3-2-2 2c-24 9-37 7-63 6l-29-5-13-4c-20-6-31-12-53-12h-16l-7 2v-1l1-7v-11c0-14 3-23 3-37l1-38 1-39 5-66 2-16v-4l1-5-1-1h5l5-1 9-1c20-2 30 4 48 7l12 2c11 2 18 3 28 3 26 0 38 0 61-10l3-2 1-1z" fill="none" stroke="#fff" stroke-width="2"/><path d="M1245 4201c0 2 3 1 3 0v-11-68-33-59c0-23 0-37-2-60 0-1 0-1 0 0l-1 60v171M1211 4202l19-6 1-26 1-90-1-122c0-9-4-3-14 2l-1 14c0 24-4 36-4 59v63l-1 36v70M1204 4134v68l3-1v-67l1-37v-66l-2-68c0-1-1 0 0 0l-2 68v103M1198 4146v57h3v-57l1-37v-67l-2-67c0-1-1-1 0 0l-1 67-1 67v37M1190 4156v48h4v-48-37-67c0-26 0-41-2-67 0-1-1-1 0 0l-1 67v67l-1 37M1237 4190v7l3 2v-9-68l1-33v-59l-2-60c0-1-1-1 0 0l-1 60v59l-1 33v68M1064 4179s0 2 0 0c0 2 4 2 4 2s0-2 0 0l2-35 2-59c2-94 0-94-4 0l-2 59-2 33M1103 4157l-1 29 3 1 1-30 2-59c1-19 2-31 1-47l1-12c-2 3-2 7-2 11l-2 47-3 60M1112 4143l-2 45 3 1 2-46 1-46 1-12-2 12c-1 15-3 27-3 46M1118 4156l-1 35 3 1 1-36c1-18 2-30 1-45v-17l-1 15-3 47M1381 4017l-2-67h-3l2 68v36l3 67 4 67c0 1 1 1 0 0l-1-67-2-67-1-37M1387 4007l-2-58-3 1 1 57 1 37 2 66 5 68c0 1 1 0 0 0l-1-68-2-66-1-37M1394 3999l-2-49-3 1 1 48 1 37 3 66 4 67c0 1 1 1 0 0l-1-67-2-67-1-36M1372 4003l-2-52-3 1 1 51 1 37 2 67c1 26 2 41 5 67l-1-67-3-67v-37M1400 3997l-1-44-3-1 1 46 1 37 2 66a1067 1067 0 0 0 5 68v-1 0l-2-67-2-67-1-37M1407 3997l-1-44h-3l1 44 1 37 2 67c1 26 2 41 5 67v0l-2-67-2-67-1-37M1361 3970v-16l-3 1v15l2 67a1081 1081 0 0 0 5 68v-1 0l-1-67-3-67M1354 4010l-2-54-3 1 2 53 4 67v0l-1-67M1074 4154l-2 27h4l1-27 2-59c3-94 1-95-3 0l-2 59M1081 4161l-1 20s1 0 0 0l3 1 1-21 2-59c3-94 1-95-3 0l-2 59M1088 4168l-1 14 3 1 1-15 2-59c3-94 1-95-3 0l-2 59M1095 4175v9h3l1-9 2-59c2-94 0-94-4 0l-2 59" fill="#bdbcbc"/><path d="M1230 4197c0-13 2-21 3-34 2-40 1-63 1-103v-76l-2-30c0-2-3-2-3 0v89l-1 17c1 40 3 63 1 103v34h1" fill="#231f20"/><path d="M1501 4013h4l3-2c1-2 1-3-2-4-3 0-6 1-7 4 0 1 0 2 2 2zm-37 8l1 1c3-1 4-4 3-6 0-2-1-2-2-1-3 1-5 2-5 5l2 2zm42 72h3l2-1 3-2c1-2 0-3-2-3-3 0-7 1-7 4l1 2zm-37 11h2c2 0 4-4 3-6 0-1-1-2-2-1-3 1-5 3-5 6l2 1zm-17-1l1-8c7 1 10-1 13-1l14-7c9-4 13-5 23-6 7-1 15 3 21 6 6 2 11-2 18-3h4c-3 4-7 5-12 8-6 4-10 5-17 6h-14l-2-13-2 1 2 12-1 1c0-5-3-9-3-14 0-1 0-1 0 0v14h-1l-1-5v-1l-2-6h-1l1 4h-1c1 0 1 0 0 0h-2v-3c0-2-3-1-2 0v3l-1 1c-1 2-1 4 1 5h1v2l1 3-3 1v-7l-2-7-1 1v7l2 7c-7 3-12 8-21 8l-3-11h-1l1 11-1 1-2-11-1-2h-2v2l2 11h-1c0-6-2-9-3-14h-1l1 13-1 1v-1l-1-9zm-474-86l1-5-1 1h2l2-8 1-9a276 276 0 0 0 21 9l1 15c0 1 2 1 2-1l1-14v-1l2 1-1 1 1 14h2l1-14v-1h2l-1 1 1 14h2l1-14v-1h3l-2 21h-7c-13 1-19-6-31-9h-3zm2-24h-4v-3h5c13 2 20 9 33 8h7v3l-10 1-10-2-16-5-5-2zm-14 103v-2l2-10v1 6l2-5 1-12v-1l1 1a365 365 0 0 0 26 10v16h1l1-3 1-13h2l-1 13v4h2l1-4 1-12h1l-1 12 1 4h1l1-4 1-13h2v17h1l1-3 1-14v-1l2-1-2 23c-5 2-9 2-14 2-13 1-19-8-31-11h-4zm467-159l-1 2 1 11 1 20 1 1v13l1 22 1 9h-3l-1-29-2-24 1-14v-4l-2-2v-2c0-2-1 0-2 2l-1 2v4l1 33 1 1 1 4 1 23-2 1-1 19-1-18-2-46 1-15c0-1-1-2-3-2v-3l-1 1v2l-1 2v18l2 23 1-8v7h-1v58l-2-47-2-24 1-18-1-4v-4l-1-2c-5-3-11-5-19-6h-18c-14 0-23 4-35 6l-24 6a164 164 0 0 1-48 1l-1-1c-7-1-11-3-17-5-5-2-9-2-14-5-1-1-2 0-1 1l-3-1 1-2 12 5a155 155 0 0 0 81 2l2 2c17-5 27-9 45-9l17-1c2 0 3-1 3-3l1 1c9 0 12 0 19 4h2c-5-5-11-6-20-7h-18c-15 0-23 3-36 6l-24 6a169 169 0 0 1-50 1l-1-2-3-1c-7-1-11-3-17-5l-6-3-1 2 2 2-5-3 1-2 8 3a162 162 0 0 0 87 1l15-4c14-3 22-2 35-2 3 0 4-2 3-3h12c9 0 12 1 20 4h1c-5-4-11-6-21-7h-18l-14 1-19 3-8 3-20 5a191 191 0 0 1-48 1l-2-1h-1c-6 0-9-3-16-4l-7-2-1 1-4-2 1-1h1a169 169 0 0 0 76 4l18-4h-1c-2 1-1 3 0 3 9-4 14-4 23-6 7-2 11-2 19-2l6-1 2-2h14c9 0 17 2 24 6l2-1c-6-4-17-7-26-8h-19c-15 0-24 3-37 6l-25 6c-12 2-28 3-38 2-14 0-31-3-35-8l2-1 2 1c7 5 17 6 25 6 31 2 44-3 74-11 12-3 24-4 36-4 18-1 27-2 43 7l8 4-1 1 1 7v22l1 25a1091 1091 0 0 1 0 34c0-4 0-8-2-13v-22-18l-1-15-1-15-1-1c0-2-3-2-3 0v1zm-17 19l-1 3v20l1 21v4l1 11v36c0-24-3-38-3-63l-1-16-1-4v-14c0-1-1-2-2-1l-7-2-6-1-6-1 6 1c2 0 3-3 2-4 8 1 11 1 17 4v6zm27 81v-8l1 25v-16l-1-1zm-2 26a454 454 0 0 1 0 4zm-7-33v5a600 600 0 0 0 0-4zm0 21l1 9v-2l-1-7zm-4 21v-10 10zm-1 6v1h1v2h-1zm13 34l2-15c0 22 2 34 4 63-3-1-6 2-10 4l-6 6-6 3-4 7-2 3-2 1v-6-11l1-1c0-14 2-24 3-36a276 276 0 0 1 1 41c0 2 2 1 2 0v-17l1-1 1-5 1-24 1 25-1 14c0 2 3 3 3 1l1-15v-21l2-15 2 45h1a255 255 0 0 0 1-24l-1-2 2-41a76 76 0 0 0 0-10v-4l1 7-1 17 1 9a269 269 0 0 0 0 7l1 18-1 23v2l1-1 1-23v-20-4zm-24-2l-1 36v-16-22zm-83-152c6-4 12-4 20-6l13-3-30 8zm0-3l-2 2v2l-7 1c-12 3-21 5-32 4l-24-1h3v-1c-6-1-9-3-14-5-7-2-12-2-20-7-1 0-2 1-1 2l-2-1c-1 0-2-3-1-4h1a124 124 0 0 0 50 13 153 153 0 0 0 49-5zm-87-32c1 1 0 3-1 3l-2 1c-5-6-14-6-22-3-3 0-6-1-6-4l3-1 11-3c8 0 13 2 17 7zm-34-1h1-1zm-15 37h-1l-5 1-1 1h-3l-9 2h-12c-11 0-17-1-28-3l-12-2c-19-4-29-9-49-7l-9 1-5 1-7 2v7l-1 4-2 16-5 66-2 39-1 38-2 29 2-81-1-1 5-76 2-28v-9c0-2-2-1-2 1v8c0 11-3 17-3 28l-5 58h-1l3-48c1-21 0-32 3-53h-1l-6 53c-1 23-3 36-3 59l-3 28v-21-13-5l2-38c0-13 2-21 3-35l1-35c0-2-3-1-3 0 0 14 0 22-2 35l-2 36-2 37-1 11v-3l-1-16 2-26c0-7-1-11 1-17l2-23 1-18 1-15v-5l-1-2c-1-1-3 0-3 1v6l-1 15-1 18-1 22c-2 7-2 10-2 17l-2 43v2c0-1 0-1 0 0a183 183 0 0 1-2 24v1l-3 17-1 4-1 22-1 13 1 7c0 2 2 2 3 0v-1a157 157 0 0 0 1 5h1l2-1v2c0 3 5 3 5 0v-4l1 6 1 5c1 2 3 3 5 2 0 1 0 2 1 1 2 2 6 1 6-2v-2 10l-1 6-1-1-3-3-3-6-6-3-6-6c-3-1-7-4-10-3l1-11c0-11 2-17 3-29 1-21 5-32 5-53v-16c0-40 4-58 4-98l-1-14-1-2v-1l7-3c16-7 26-12 43-11 13 0 24 1 36 4 30 7 43 11 74 10 8 0 18-1 25-6l4-1h1l1 1c-13 6-20 8-33 9a253 253 0 0 1-61-8h-2l-9-2-11-1-2-1c-12-3-20-2-32-2l-2 2-9 1c-9 2-13 3-22 8l1 1h1l20-6h1l-5 2v1c14-5 24-2 39 0a146 146 0 0 0-32 0c-9 2-9 1-18 7l1 2c9-5 9-5 17-6h1l-6 2c-2 1 0 3 1 2 6-2 11-1 17-1l10 1-2-1-17 2c-8 1-12 3-16 7-1 0 0 1 0 0 9-4 9-4 17-5l16-1c13 1 28 3 39 6l26 4a256 256 0 0 0 46 3l-1 2a159 159 0 0 1-43-2l-24-4h-1l-1-1-11-4-26-2c-10-1-17-2-26 2-2 0-1 2 0 2 5-2 9-2 14-1h-3c-7 1-11 2-15 7-1 0 0 1 0 0 8-4 8-3 16-5h15l19 1 5 1h1l12 3 25 4 35 3c9-1 16-1 24-4l-7 4zm1-18h2l-19 2a838 838 0 0 1-65-7l-5-1 14 2c2 0 2-3 0-3h-3l20 3a281 281 0 0 0 56 2c-2 0-1 2 0 2zm15-5l-2-1 7-3h2v1l-7 3zm-19 12l8-1c-7 2-13 2-22 3-14 0-33-2-36-3h-1l-25-4-3-1 10 1 1-2 17 3 38 3c9-1 15-1 22-3l-9 3v1zm21-6l-1-1 1-1 7-2-7 4zm4 4l-1-1 7-3v1l-3 2-3 1zm2 6l-2-2 5-2 3-1v2l-3 2zm-199 159zm-1 15v3l-1 2 1-5zm6-56v-3zm-3-6zm429-46l1 1v8c-1-4-3-8-3-13 0-1 0-1 0 0l-1 15h-1v-10l-1-5v-2l10-1c6-1 8-4 14-6 10-3 14-4 24-4 6 0 14 4 20 7l2 1v9l-8 1c-8-1-14-2-21 0l-1-10v-4h-1v7l-1-1-1-5h-2v4h-3v-2-1h-1v4l1 4 1 6-2 1-3-12c0-1 0-1 0 0l1 13c-7 3-12 7-21 7l-2-11 1-1h-2zm34-4v5l-1-1v-4h1zm-3 1v5l-2-5h2zm-257-66v-1zm303 64l-1-5 2-1v5zm-3-5l1 6h-2l-1 1v-6l2-1zm-6 9l-2-8h3l1 7-2 1zm-30 78l1 5-2 1v-2l-1-3h1l1-1zm-45-87h-1v-2h9c7-1 10-4 17-6 8-3 16-5 25-4 7 0 11 2 17 5l15 3 8 1h-2c-7 0-11 2-18 0-6-3-12-7-20-7-11 0-15 1-25 4-5 2-8 5-14 6h-11zm87-1h1l4-1-4 4-1-3zm-79-3l-9-2-2-16-1-25v-22-8l-2-2c-3-2-5-4-9-5-16-9-26-10-44-9-13 0-25 1-37 4-30 8-42 12-73 11-7-1-16-2-22-6l-2-1c-5-8-13-11-24-11-5 0-9 2-13 3-5 2-7 4-8 8h-2c-6 4-15 5-22 5-30 2-43-2-73-9-12-3-24-4-37-4-18-1-28 4-44 12l-10 6v3l1 2v12l-2 44-7 1c-14 1-20-6-32-8h-7c-1-2-4-2-6-2h-3-1c-10 1-14-1-23 3-3 1-7 4-9 7l-3 9-9 1h-1l-3 2c-1 1 1 3 3 3l10-1 2 6c6 9 17 10 30 8h10l3-2h4c13 2 19 9 32 8l8-1v20l-1 16v7c-5 2-10 3-16 3-13 0-19-7-31-10h-7v-1c-1-2-4-2-6-2h-3-1c-10 0-14-2-23 2-3 1-7 4-9 7l-3 9-9 1h-1l-3 2c-1 2 1 3 3 3l1 1 9-1 2 6c6 11 17 12 30 11h3l4-1 3 1 2-2h5c13 3 19 11 32 10 6 0 9 0 15-2l-1 9-2 29v12c0 2 1 2 2 2h1c3-2 6 0 9 2 3 1 3 3 5 6l6 3 4 6 2 2c1 2 2 3 4 3h1l1 1 7-1h16c21 0 32 7 53 13a246 246 0 0 0 42 8c26 2 40 5 65-5h1c24 10 43 8 69 6a231 231 0 0 0 41-7c20-5 31-12 52-11h15l7 1h1l1 1 5-4 2-2 4-7 5-3 6-7c3-2 6-4 9-2h1l1-1-1-46h15c12 0 17-7 29-11 9-4 15-4 24-4 8 0 12-2 19-6 6-4 9-5 13-10l1-2c1-1 1-2-1-3l-13-1-14-2c-6-3-11-5-18-5-10 1-21 5-27 7-6 3-9 6-15 8l-13-2-1-53 10 1c12 1 18-6 29-9 9-3 15-3 25-2 7 0 12-2 18-5s10-5 14-9v-2c1 0 1-2-1-3-4-2-8-2-13-2-3 0-9-1-13-3-7-4-11-6-19-6-9 0-21 3-26 5-6 2-9 6-16 7zm87 78h-1c-7 0-12 4-18 1-6-2-12-5-20-5-11 1-15 2-25 6l-14 7-12 1-4-1v-2h13c7-1 10-4 16-7 9-4 17-6 26-6 7-1 11 1 17 4 4 2 11 2 15 2h7zm-599-77l8-1 10-1v2l-11 1h-7v-1zm18-5l-11 1-7 1 2-2c5-4 9-3 15-3l1-1a64 64 0 0 0 0 4zm-17 9h7l10-1v4h-10c-3 0-6-1-7-3zm-25-2l10-1v1l-9 1h-1l-1-1h1zm42 14c-12 2-21 1-27-8-3-5-3-11 1-17 1-2 5-4 7-5 8-4 12-3 19-3v5h-1c-7 0-12 0-18 4-3 3-4 7-3 11 1 5 6 7 12 7h10l-1 5h1zm4-28l6 1v10l-1 8v8l-2 1h-4l-2 1 1-1v-1l1-17 1-4a467 467 0 0 1 0-6zm6-3h-6v-2h2l4 1v1zm53 3zm-92 88h8l10-1v3h-18v-2zm18-4l-11 1h-7l2-2c5-4 9-3 15-3h1a81 81 0 0 0 0 4zm-17 9h17v4l-3-1h-7c-3 0-6-1-7-3zm-25-4l10-1v2l-9 1-2-1 1-1zm42 17c-12 1-21 0-26-10-4-5-3-12 0-17 1-3 5-5 7-6 8-3 12-2 19-2v5h-1c-7 0-12 0-17 4-4 2-5 7-4 11 1 6 6 8 12 8h7l3 1-1 5 1 1zm4-29c3-1 4 0 6 1l-1 11v17h-6l-2 1h1v-2l1-18 1-4a508 508 0 0 1 0-6zm6-3h-6v-3l2 1h4v2zm4 3v-3h5c13 3 20 10 32 10 6 1 10 0 15-2l1 3c-6 3-13 3-18 3l-10-2-16-7-5-1-4-1zm267-117v1l3 2c23 12 39 11 59 12 12 0 21-2 33-4l11-3c20-4 30-11 50-9l9 1 6 1 6 1v13l1 4 1 16c0 26 2 40 3 66v39l-1 37c-1 15 2 23 2 38v17l-7-2h-15c-21-1-32 5-52 11l-13 3c-12 3-17 4-28 4-25 1-43 3-67-7l-3-2-2 2c-24 9-37 7-63 6l-29-5-13-4c-20-6-31-12-53-12h-16l-7 2v-1l1-7v-11c0-14 3-23 3-37l1-38 1-39 5-66 2-16v-4l1-5-1-1h5l5-1 9-1c20-2 30 4 48 7l12 2c11 2 18 3 28 3 26 0 38 0 61-10l3-2 1-1" fill="#b8651b"/><path d="M1377 4048l2-1 4-11 7-21 6-8h-10c-2 0-2 2-2 2l1 2-3 8-11 2-3-6 2-6c1-2-1-2-1-2h-7c-2-1-2 0-1 1l6 8 10 32zm-2-14l-4-12 10-1-4 14-2-1zm-41 17l10-2 17-1 1-6-1-2-6 5c-3 2-7 1-7 1l-2-22c0-4-1-12 1-13s1-2-1-1h-12l1 2c1 0 4 2 4 4-1 2 2 24 3 31-6 2-12-4-13-5s-2 0-1 2l6 7zm-38 4c-1 1 0 3 1 2l3-1h7c2-1 2-2 1-2-2 0-3-2-3-2l-1-30c0-3 1-4 4-4h7l8 3 2 1-3-4-1-4h-2-7l-10 2h-7l1 2c2 1 2 3 2 7l1 25c0 2-2 5-3 5zm-41-41v2l3 3 2 4 2 6 4 10 3 11 2 7 2 1 2-6a493 493 0 0 1 15-36l-11 1c-2 0-1 1 0 2v3l-2 8-12-1-3-8c-1-2 1-5 1-5h-4l-4-2zm16 34l-1-3-4-14h3l7 1v4c-2 2-4 10-4 12h-1zm74 93l-2-32 1-4 5-1c3 1 6 1 7 4 2 3 4 13 4 19 0 5-2 11-5 13-3 1-4 3-7 3s-3 0-3-2zm-8 4c-2 2 0 3 1 2l10-2c5-1 8-2 13-7 4-4 6-10 6-16s-3-12-5-13l-4-3-4-3-7-1-12 2v2l1 3 2 13 1 21c0 2 0 1-2 2zm-46-35l3 5 4 7a332 332 0 0 0 15 29l2-8 2-13 3-17 2-6-9 2 1 2v4l-1 3-1 2-12 2-3-7-1-5h-5zm11 14h9l-1 13c-1 2-1 2-3 0l-4-9s-2-1-1-4zm-106-107l3 3 2 7 2 8 8 22a1715 1715 0 0 0 8-25l3-13c1-4 4-6 4-6l-12 1 1 6c1 1-1 7-1 7l-9 1-2-4v-7l-1-2-6-1c-2 0-1 2 0 2zm9 12l8 1-3 13c0 2-1 1-1 0l-4-10v-4zm-41 22c-3 2 1 2 3 3l9 1 1-1-2-2v-13l1-17c1-4 4-6 5-6 2 1 4 1 7 4 2 3 1 11 1 13l-1 19c0 2-3 3-4 4s1 1 3 1h6c2 0 1-2 0-3l-2-3 2-23c0-3-2-8-4-10-2-3-6-5-7-5-2-1-5 1-6 1 0 0-4 3-6 7l-3 28c0 3-2 1-3 2zm-22-5c-2-2 1-36 1-38 0 0 3-1 6 1 2 2 7 6 6 19 0 13-6 17-7 18h-6zm-9-1v2h4l8 1c4 0 9-1 12-4 3-4 6-15 6-18 0-4-2-7-3-8s-5-8-8-10c-4-3-12-3-13-3s-3 0-4-2v2l2 5v15l-1 17c0 3-3 3-3 3zm-33-3v2h16c6 0 9-5 10-8 1-4-1-7-2-9l-8-6c4-3 3-8 6-12l9-6c-5-1-12 3-14 6l-7 11-2 1 2-17c1-2-2-3-3-2l-7-1v1l2 2c0 1 2 4 1 6v10a547 547 0 0 1-3 22zm7 0c-1-2 1-4 1-7v-10l1-2h6l3 2 2 7c0 3-1 7-4 9l-6 2-3-1zm-44-38l1 2 3 5 3 9a1064 1064 0 0 0 8 24c1 2 4 1 4 1l2-6 6-24 5-12c1-1 1-2-1-1l-8-1v6l-1 4-1 5-5 1h-7l-3-7 1-5c1-2 0-3-2-2l-5 1zm16 30l-4-11v-2h8l-4 12zm79 109c-2 1 0 2 1 2 3-1 8 2 11 3 2 1 9 2 13 1 5-1 9-5 9-7 1-2-1-6-3-8l-8-6v-2c1 0 3-2 5-8 3-5 9-8 13-7 4 0 3-1-3-2-7-1-10 2-14 5l-8 10c-1 1-3 2-4 1v-2l1-10c0-4 2-4 2-4 1-1 1-3-3-2l-9-3 1 4 1 4v10l-1 11c0 4-2 9-4 10zm11 0v-15l1-1 6 1c2 1 7 3 8 6s1 9-2 10c-2 1-10 2-11 1l-2-2zm-50-8c-1 1 0 1 1 1l13 2 13 3c1 1 2 2 2 0v-7h-1l-5 4-9-2c-2-1-3-1-3-3v-11h5l5 5c1 2 1 2 1 0v-11c0-2-1-1-2 0s-2 4-5 4c-2 0-4-2-4-3l1-17 4 1 7 1 5 4 4 8h1l-1-12-2-1c-1 0-10-1-12-3l-6-2-9-2c-3-1 0 3 1 3 2 1 1 5 1 6v13l-1 14c0 3-2 4-4 5zm-29-7l1-7v-7l2-1h9c1 1 7 0 7 7s-3 11-7 10h-11l-1-2zm-10 4l24 1c5-1 13-2 12-10 0-9-10-10-12-12h-13v-6l1-10c0-1 1-3 3-3s-1-2-2-2h-8c-1 0-3 0-1 2 2 1 2 12 1 14l-1 21c-1 1-1 4-3 4s-1 1-1 1" fill="#231f20"/><path d="M1080 4132l24 1c5-1 13-2 12-10 0-9-10-10-12-12h-13v-6l1-10c0-1 1-3 3-3s-1-2-2-2h-8c-1 0-3 0-1 2 2 1 2 12 1 14l-1 21c-1 1-1 4-3 4s-1 1-1 1zm10-4l1-7v-7l2-1h9c1 1 7 0 7 7s-3 11-7 10h-11l-1-2M1119 4135c2-1 4-2 4-5l1-14v-13-6c-2 0-5-4-2-3l9 2 6 2c2 2 11 3 12 3l2 1 1 12h-1l-4-8-5-4-7-1-4-1-1 17c0 1 2 3 4 3 3 0 4-3 5-4s2-2 2 0v11c0 2 0 2-1 0l-5-5h-5v11c0 2 1 2 3 3l9 2 5-4h1v7c0 2-1 1-2 0l-13-3-13-2c-1 0-2 0-1-1M1158 4143c2-1 4-6 4-10l1-11v-10l-1-4-1-4 9 3c4-1 4 1 3 2 0 0-2 0-2 4l-1 10v2c1 1 3 0 4-1l8-10c4-3 7-6 14-5 6 1 7 2 3 2-4-1-10 2-13 7-2 6-4 8-5 8v2l8 6c2 2 4 6 3 8 0 2-4 6-9 7-4 1-11 0-13-1-3-1-8-4-11-3-1 0-3-1-1-2zm11 0v-15l1-1 6 1c2 1 7 3 8 6s1 9-2 10c-2 1-10 2-11 1l-2-2M1063 4004l5-1c2-1 3 0 2 2l-1 5 3 7h7l5-1 1-5 1-4v-6l8 1c2-1 2 0 1 1l-5 12-6 24-2 6s-3 1-4-1a142 142 0 0 0-8-24l-3-9-3-5-1-2zm16 30l-4-11v-2h8l-4 12v1M1100 4042a547 547 0 0 0 2-38l-2-2v-1l7 1c1-1 4 0 3 2l-2 17 2-1 7-11c2-3 9-7 14-6l-9 6c-3 4-2 9-6 12l8 6c1 2 3 5 2 9-1 3-4 8-10 8h-16v-2zm7 0c-1-2 1-4 1-7v-10l1-2h6l3 2 2 7c0 3-1 7-4 9l-6 2-3-1M1142 4046c-2-2 1-36 1-38 0 0 3-1 6 1 2 2 7 6 6 19 0 13-6 17-7 18h-6zm-9-1s3 0 3-3l1-17v-15l-2-5v-2c1 2 3 2 4 2s9 0 13 3c3 2 7 9 8 10s3 4 3 8c0 3-3 14-6 18-3 3-8 4-12 4l-8-1h-4v-2M1164 4051c1-1 3 1 3-2l3-28c2-4 6-7 6-7 1 0 4-2 6-1 1 0 5 2 7 5 2 2 4 7 4 10l-2 23 2 3c1 2 2 3 0 3h-6c-2 0-4 0-3-1s4-2 4-4l1-19c0-2 1-10-1-13-3-3-5-3-7-3-1 0-4 1-5 5l-1 17v13l2 2c1 0 0 2-1 1l-9-1c-2 0-6-1-3-3M1196 4017c-1-1-2-3 0-3l6 1 1 2v7l2 4 9-1s2-6 1-7l-1-6 12-1s-3 2-4 6l-4 13-5 24c0 3-1 5-2 1l-8-22-2-8a23 23 0 0 0-5-10zm9 12v4l4 10a408 408 0 0 0 4-13l-8-1M1291 4110h5l1 5 3 7 12-2 1-2 1-3v-4l-2-2 10-2-2 6-3 17-2 13-3 8c0 1-1 1-1-1l-6-14a332 332 0 0 1-11-21l-3-5zm11 14h9l-1 13c-1 2-1 2-3 0l-4-9s-2-1-1-4M1345 4141l-2-32 1-4 5-1c3 1 6 1 7 4 2 3 4 13 4 19 0 5-2 11-5 13-3 1-4 3-7 3s-3 0-3-2zm-8 5c2-2 2-1 2-3a258 258 0 0 0-3-34l-1-3v-2l12-2 7 1 4 3 4 3c2 1 5 7 5 13s-2 12-6 16c-5 5-8 6-13 7l-10 2c-1 1-3 0-1-1M1255 4014l4 2h4s-2 3-1 5l3 8 12 1 2-8v-3c-1-1-2-2 0-2l11-1-3 4-12 32-2 6-2-1-2-7-3-11-4-10-2-6-2-4-3-3v-2zm16 34l-1-3-4-14h3l7 1v4c-2 2-4 10-4 12h-1M1296 4055c1 0 3-3 3-5l-1-25c0-4 0-6-2-7l-1-2h7l10-2h9l1 4 3 4-2-1-8-3h-7c-3 0-4 1-4 4a9535 9535 0 0 1 4 32c1 0 1 1-1 2h-7l-3 1c-1 1-2-1-1-2M1334 4051l-6-7c-1-2 0-3 1-2s7 7 13 5c-1-7-4-29-3-31 0-2-3-4-4-4l-1-2h12c2-1 3 0 1 1s-1 9-1 13l2 22s4 1 7-1l6-5 1 2-1 6-17 1-10 2M1377 4048l-10-32-6-8c-1-1-1-2 1-1h7s2 0 1 2l-2 6 3 6 11-2 3-8-1-2s0-2 2-2h10l-6 8-7 21-4 11-2 1zm-2-14l-4-12 10-1-4 14-2-1" fill="#231f20" fill-rule="evenodd"/></g></svg>
