<svg xmlns="http://www.w3.org/2000/svg" width="265" height="265"><path fill="#fff" d="M0 0h265v265H0z"/><path d="M124.3 73.3c2.5-2.5 5.6-3.8 9-3.8 3.6 0 6.6 1.3 9.1 3.8 2.6 2.6 3.9 5.6 3.9 9.1s-1.3 6.5-3.9 9a12.4 12.4 0 0 1-9 3.9c-3.5 0-6.6-1.3-9.1-3.8a12.4 12.4 0 0 1-3.8-9.1c0-3.5 1.3-6.5 3.8-9z" fill="#ab1132"/><path d="M102 75.3a9.6 9.6 0 0 0-7.2-2.9H13.7a9.7 9.7 0 0 0-10 10c0 3 1 5.4 2.9 7.2a9.8 9.8 0 0 0 7 2.7h81.2c3 0 5.4-.9 7.2-2.7a9.8 9.8 0 0 0 2.8-7.2c0-2.9-1-5.2-2.8-7.1zM258.8 75.3a9.6 9.6 0 0 0-7.3-2.9h-81.1a9.6 9.6 0 0 0-10 10c0 3 1 5.4 2.9 7.2a9.8 9.8 0 0 0 7.1 2.7h81.1c3 0 5.4-.9 7.3-2.7a9.8 9.8 0 0 0 2.7-7.2c0-2.9-1-5.2-2.7-7.1z" fill="#0e345e"/><path d="M124.3 123.3c2.5-2.5 5.6-3.8 9-3.8 3.6 0 6.6 1.3 9.1 3.8 2.6 2.6 3.9 5.6 3.9 9.1s-1.3 6.5-3.9 9a12.4 12.4 0 0 1-9 3.9c-3.5 0-6.6-1.3-9.1-3.8a12.4 12.4 0 0 1-3.8-9.1c0-3.5 1.3-6.5 3.8-9z" fill="#ab1132"/><path d="M102 125.3a9.6 9.6 0 0 0-7.2-2.9H13.7a9.7 9.7 0 0 0-10 10c0 3 1 5.4 2.9 7.2a9.8 9.8 0 0 0 7 2.7h81.2c3 0 5.4-.9 7.2-2.7a9.8 9.8 0 0 0 2.8-7.2c0-2.9-1-5.2-2.8-7.1zM258.8 125.3a9.6 9.6 0 0 0-7.3-2.9h-81.1a9.6 9.6 0 0 0-10 10c0 3 1 5.4 2.9 7.2a9.8 9.8 0 0 0 7.1 2.7h81.1c3 0 5.4-.9 7.3-2.7a9.8 9.8 0 0 0 2.7-7.2c0-2.9-1-5.2-2.7-7.1z" fill="#0e345e"/><path d="M124.3 173.3c2.5-2.5 5.6-3.8 9-3.8 3.6 0 6.6 1.3 9.1 3.8 2.6 2.6 3.9 5.6 3.9 9.1s-1.3 6.5-3.9 9a12.4 12.4 0 0 1-9 3.9c-3.5 0-6.6-1.3-9.1-3.8a12.4 12.4 0 0 1-3.8-9.1c0-3.5 1.3-6.5 3.8-9z" fill="#ab1132"/><path d="M102 175.3a9.6 9.6 0 0 0-7.2-2.9H13.7a9.7 9.7 0 0 0-10 10c0 3 1 5.4 2.9 7.2a9.8 9.8 0 0 0 7 2.7h81.2c3 0 5.4-.9 7.2-2.7a9.8 9.8 0 0 0 2.8-7.2c0-2.9-1-5.2-2.8-7.1zM258.8 175.3a9.6 9.6 0 0 0-7.3-2.9h-81.1a9.6 9.6 0 0 0-10 10c0 3 1 5.4 2.9 7.2a9.8 9.8 0 0 0 7.1 2.7h81.1c3 0 5.4-.9 7.3-2.7a9.8 9.8 0 0 0 2.7-7.2c0-2.9-1-5.2-2.7-7.1z" fill="#0e345e"/></svg>