<svg xmlns="http://www.w3.org/2000/svg" width="759" height="156.3"><path fill="#0E345E" d="M351.2 146a74.3 74.3 0 0 1-27.2-28.4c-6.7-12-10-25.1-10-39.6 0-14.3 3.3-27.4 10-39.3s15.7-21.3 27.2-28.3A72.3 72.3 0 0 1 389.3 0c10 0 18.5 1.3 25.7 3.9a77 77 0 0 1 22 12.9 9.2 9.2 0 0 1 3 3.6c.6 1.2.8 2.7.8 4.4 0 2.6-1 4.7-2.8 6.4a9.5 9.5 0 0 1-6.5 2.6c-2.5 0-4.8-.9-6.9-2.6a56.9 56.9 0 0 0-15.6-9.8c-5-2-11.6-3-19.7-3a51.7 51.7 0 0 0-28 8A61.5 61.5 0 0 0 333.5 78a61.3 61.3 0 0 0 27.8 51.6c8.5 5.4 17.9 8 28 8a59 59 0 0 0 36-12.8c2.1-1.6 4.3-2.4 6.4-2.4a8 8 0 0 1 6.1 2.7c1.6 1.7 2.4 4 2.4 6.9 0 2.7-1 5.1-3 7.2-14.1 11.3-30 17-47.9 17-13.9 0-26.6-3.5-38.1-10.4zM468 151.4a10 10 0 0 1-2.8-7.2V12c0-2.9 1-5.3 3-7.2 1.9-2 4.2-3 7-3s5.2 1 7.2 3 3 4.3 3 7.2v122h70.5c2.9 0 5.3 1 7.3 2.9 2 2 2.9 4.3 2.9 7.2 0 2.8-1 5.3-3 7.2-1.9 2-4.3 3-7.2 3h-80.7c-2.9 0-5.3-1-7.2-3z"/><path fill="#AB1132" d="M586.4 24a12.4 12.4 0 0 1-3.8-9c0-3.6 1.3-6.6 3.8-9.1a12.6 12.6 0 0 1 18.1 0c2.6 2.5 3.9 5.5 3.9 9s-1.3 6.6-3.8 9.1c-2.6 2.5-5.6 3.8-9.1 3.8s-6.6-1.3-9-3.8z"/><path fill="#0E345E" d="M588.4 151.5a9.6 9.6 0 0 1-2.9-7.1V57.6c0-3 1-5.4 2.9-7.3a9.8 9.8 0 0 1 7-2.7c3 0 5.5 1 7.3 2.7a9.8 9.8 0 0 1 2.7 7.3v86.8c0 2.8-.9 5.2-2.7 7.1a9.6 9.6 0 0 1-7.2 2.8c-2.9 0-5.3-1-7.1-2.8z"/><path fill="#AB1132" d="M120.6 19c2.5-2.6 5.5-3.8 9-3.8 3.6 0 6.6 1.2 9.1 3.8 2.6 2.5 3.8 5.5 3.8 9 0 3.6-1.2 6.6-3.8 9.1a12.4 12.4 0 0 1-9 3.8c-3.6 0-6.6-1.2-9.1-3.8a12.4 12.4 0 0 1-3.8-9c0-3.6 1.2-6.6 3.8-9.1z"/><path fill="#0E345E" d="M98.3 21a9.6 9.6 0 0 0-7.2-2.9H10a9.7 9.7 0 0 0-10 10c0 3 1 5.4 2.8 7.2A9.8 9.8 0 0 0 10 38H91c3 0 5.4-1 7.2-2.7A9.8 9.8 0 0 0 101 28c0-3-.9-5.3-2.7-7.2zM255 21a9.6 9.6 0 0 0-7.2-2.9h-81.1a9.6 9.6 0 0 0-10 10c0 3 1 5.4 2.9 7.2a9.8 9.8 0 0 0 7 2.7h81.2c3 0 5.4-1 7.2-2.7a9.8 9.8 0 0 0 2.8-7.2c0-3-1-5.3-2.8-7.2z"/><path fill="#AB1132" d="M120.6 69c2.5-2.6 5.5-3.8 9-3.8 3.6 0 6.6 1.2 9.1 3.8 2.6 2.5 3.8 5.5 3.8 9 0 3.6-1.2 6.6-3.8 9.1a12.4 12.4 0 0 1-9 3.8c-3.6 0-6.6-1.2-9.1-3.8a12.4 12.4 0 0 1-3.8-9c0-3.6 1.2-6.6 3.8-9.1z"/><path fill="#0E345E" d="M98.3 71a9.6 9.6 0 0 0-7.2-2.9H10a9.7 9.7 0 0 0-10 10c0 3 1 5.4 2.8 7.2A9.8 9.8 0 0 0 10 88H91c3 0 5.4-1 7.2-2.7A9.8 9.8 0 0 0 101 78c0-3-.9-5.3-2.7-7.2zM255 71a9.6 9.6 0 0 0-7.2-2.9h-81.1a9.6 9.6 0 0 0-10 10c0 3 1 5.4 2.9 7.2a9.8 9.8 0 0 0 7 2.7h81.2c3 0 5.4-1 7.2-2.7a9.8 9.8 0 0 0 2.8-7.2c0-3-1-5.3-2.8-7.2z"/><path fill="#AB1132" d="M120.6 119c2.5-2.6 5.5-3.8 9-3.8 3.6 0 6.6 1.2 9.1 3.8 2.6 2.5 3.8 5.5 3.8 9 0 3.6-1.2 6.6-3.8 9.1a12.4 12.4 0 0 1-9 3.8c-3.6 0-6.6-1.2-9.1-3.8a12.4 12.4 0 0 1-3.8-9c0-3.6 1.2-6.6 3.8-9.1z"/><path fill="#0E345E" d="M98.3 121a9.6 9.6 0 0 0-7.2-2.9H10a9.7 9.7 0 0 0-10 10c0 3 1 5.4 2.8 7.2A9.8 9.8 0 0 0 10 138H91c3 0 5.4-1 7.2-2.7a9.8 9.8 0 0 0 2.7-7.2c0-3-.9-5.3-2.7-7.2zM255 121a9.6 9.6 0 0 0-7.2-2.9h-81.1a9.6 9.6 0 0 0-10 10c0 3 1 5.4 2.9 7.2a9.8 9.8 0 0 0 7 2.7h81.2c3 0 5.4-1 7.2-2.7a9.8 9.8 0 0 0 2.8-7.2c0-3-1-5.3-2.8-7.2zM669.4 146a74.3 74.3 0 0 1-27.2-28.4c-6.7-12-10-25.1-10-39.6 0-14.3 3.3-27.4 10-39.3s15.7-21.3 27.2-28.3A72.3 72.3 0 0 1 707.5 0c10 0 18.5 1.3 25.7 3.9a77 77 0 0 1 22 12.9 9.2 9.2 0 0 1 3 3.6c.6 1.2.8 2.7.8 4.4 0 2.6-.9 4.7-2.8 6.4a9.5 9.5 0 0 1-6.5 2.6c-2.5 0-4.8-.9-6.8-2.6a56.9 56.9 0 0 0-15.7-9.8c-5-2-11.6-3-19.7-3a51.7 51.7 0 0 0-28 8A61.5 61.5 0 0 0 651.7 78a61.3 61.3 0 0 0 27.8 51.6c8.6 5.4 17.9 8 28 8a59 59 0 0 0 36-12.8c2.2-1.6 4.3-2.4 6.4-2.4a8 8 0 0 1 6.1 2.7c1.6 1.7 2.5 4 2.5 6.9 0 2.7-1 5.1-3.2 7.2-14 11.3-30 17-47.8 17-13.9 0-26.6-3.5-38.1-10.4z"/></svg>