<svg xmlns="http://www.w3.org/2000/svg" height="249" width="674"><defs><clipPath id="a"><path d="M0 0h5055v1867H0z"/></clipPath><clipPath id="b"><path d="M0 0v1867h1868V0z"/></clipPath><radialGradient id="c" spreadMethod="pad" gradientTransform="matrix(2362.06 0 0 -2362.06 -16.4 2035.9)" gradientUnits="userSpaceOnUse" r="1" cy="0" cx="0" fy="0" fx="0"><stop offset="0" stop-color="#3ea0be"/><stop offset=".2" stop-color="#3ea0be"/><stop offset="1" stop-color="#27356d"/></radialGradient><clipPath id="d"><path d="M0 0v1867h5055V0z"/></clipPath></defs><g clip-path="url(#a)" fill="#27366d" transform="matrix(.13333 0 0 -.13333 0 249)"><path d="M2904 30.9l-5.5 16.7c-24.3-7.5-39.9-10.7-51.7-10.7-33 0-51.2 29.2-51.2 82.4 0 49.4 19.4 76.6 54.6 76.6 12.5 0 26.6-1.7 45.1-5.7l4 17.3c-17.8 5.4-36.3 8.6-50.2 8.6-50.6 0-78.3-35.2-78.3-100 0-62.7 27.1-99.7 72.2-99.7a180 180 0 0 1 61 14.5M3079.8 20.2v192.7h-23v-82.6h-92.5v82.6H2941V20.2h23.1V113h92.6V20.2h23M3149.6 20.2V213h-23V20.2h23M3335.3 20.2v192.7H3316V41.6l-86.7 171.3h-33V20.2h19.4v169l86.7-169h32.9M3408 89.5l34.6 103.5 35.8-103.5zm49.4 123.4H3431l-68.5-192.7h20.8l18.5 51.7h83.2l18.8-51.7h23.7l-70.2 192.7M4018.6 20.2l-6.4 192.8h-33l-55.4-174.4-56.1 174.4h-33l-6.4-192.8h21.4l3.8 170.5 54.9-170.5h27.8l55.5 170.5 3.2-170.5h23.7M4091 89.5l34.8 103.6 35.8-103.6zm49.5 123.5h-26.3l-68.5-192.8h20.8l18.5 51.7h83.3l18.8-51.7h23.7L4140.5 213M4349.1 20.2v17.3h-86V213h-23.2V20.2h109.2M4411.3 89.5l34.7 103.6 35.9-103.6zm49.4 123.5h-26.3L4366 20.2h20.8l18.5 51.7h83.3l18.8-51.7h23.7L4460.7 213M4672.5 213h-23.1l-51.2-89-52.6 89h-26.5l65.6-108.4V20.2h23.1v84.4l64.7 108.4M4800.7 75c0 29.3-11 42-53.2 55-36.1 11-41 16.2-41 33.6 0 20.5 14.7 32 35.8 32 11.8 0 26.6-2 45.7-6l4 17a184.9 184.9 0 0 1-50.6 8.1c-35.3 0-58-20.2-58-53.2 0-44.5 44.4-47 75.7-61.3 15-6.6 18.5-13.8 18.5-28 0-20.8-18.2-34.7-42.8-34.7-13.9 0-29.2 2.6-48.5 7.5l-5-17.6c21.4-6.4 36.7-9 55-9 39 0 64.4 21.7 64.4 56.7M4859.8 20.2V213h-23.2V20.2h23.1M4934.2 89.5l34.7 103.6 35.8-103.6zm49.4 123.5h-26.3l-68.5-192.8h20.8l18.6 51.7h83.2l18.8-51.7h23.7L4983.6 213M2319.6 98.5v114.2h-19.3V90.1c0-17.6-1.5-27.4-5.5-34.6-7-12.7-21.4-19.3-42.1-19.3-32.4 0-48.2 14.4-48.2 46.4v130.1h-23v-113c0-36.7 1.4-46 10-58.3 10.4-15 32.3-24.2 57.7-24.2 24 0 42.4 6 54.5 17.5 13.3 13 15.9 23 15.9 63.8M2497.4 20.3l-88.5 103 86.2 89.4h-27.4l-83.6-87.7v87.7h-23V20.3h23v99.3l84.5-99.3h28.9M2620.3.2h9.1v232.1h-9.1zM3659.6.2h9.1v232.1h-9.1zM4981 495.9v231.7c0 29-15.9 53.3-54.6 53.3-21.8 0-37.6-6.1-51-19.4 3.7-11 4.9-21.9 4.9-44.9V496h-74v231.7c0 26.6-7.3 54.5-54.6 54.5a89.4 89.4 0 0 1-46-9.7V495.9h-74v305.6c27.9 12.1 67.8 26.7 123.6 26.7 46.1 0 76.5-10.9 94.6-26.7 21.9 15.8 51 26.7 93.5 26.7 77.5 0 111.5-44.9 111.5-100.6V495.9h-74M4201.5 495.9v226.8c0 31.5-13.4 54.5-54.6 54.5-23 0-38.8-6-54.5-15.7V495.9h-74v436.6h74V811.2a193.6 193.6 0 0 0 72.7 14.6c81.3 0 110.3-48.6 110.3-98.2V495.9h-74M3300.1 869.2c-28.1 0-42.8 18.4-42.8 39.2 0 20.8 14.7 39.1 42.8 39.1 26.9 0 42.8-18.3 42.8-39 0-20.9-16-39.3-42.8-39.3M3574.5 495.9v231.7c0 26.6-11 54.5-58.3 54.5-24.2 0-36.4-3.6-49.7-9.7V495.9h-74v305.6a317 317 0 0 0 127.4 26.7c97 0 128.5-47.3 128.5-99.5V496h-74M3263 495.9V822h74.1V496h-74M3166.3 492.3c-64.3 0-89.8 36.3-89.8 88.5v194h-36.3v47.3h36.4v65.5l74 20.6v-86h52.1v-47.4h-52.2v-194c0-29.1 15.8-37.7 36.4-37.7 6 0 14.6 0 21.9 1.3v-48.5c-7.3-1.2-26.7-3.6-42.5-3.6M2968.8 492.3c-64.3 0-89.8 36.3-89.8 88.5v194h-36.3v47.3h36.3v65.5l74 20.6v-86h52.2v-47.4H2953v-194c0-29.1 15.7-37.7 36.4-37.7 6 0 14.5 0 21.8 1.3v-48.5a313 313 0 0 0-42.5-3.6M2431.2 495.9l-155.2 262a401 401 0 0 0-25.5 50.9h-1.2c2.4-20.6 3.7-37.6 3.7-53.4V496h-71.6v416h76.4l144.3-245a290.6 290.6 0 0 0 23.1-47.3h1.2c-2.5 20.6-2.5 35.1-2.5 49.7V912h71.6v-416h-64.3M4502 537.1c-8.5-3.6-26.7-8.5-43.7-8.5-38.8 0-65.5 25.5-65.5 70.4 0 42.4 23.1 71.5 68 71.5 20.6 0 34-3.6 41.2-4.8zm-51 291c-50.9 0-89.7-14.5-111.5-24.2l16.9-44.9a189.6 189.6 0 0 0 81.3 20.7c38.8 0 64.3-11 64.3-53.4v-18.2c-6.1 1.2-28 4.9-47.3 4.9-75.2 0-135.8-38.9-135.8-116.4 0-63.1 42.4-110.4 134.6-110.4 51 0 92.1 9.7 120 23v205c0 84.9-54.5 114-122.4 114M3887.5 552.9a87.8 87.8 0 0 0-42.4-10.9c-52.1 0-75.2 38.8-75.2 114 0 77.6 24.3 126.1 78.8 126.1 15.8 0 28-1.2 38.8-7.3zm-37.9 275.3c-105.3 0-157.3-66.7-157.3-172.3 0-101.8 52-162.5 130.7-162.5 29 0 50.8 5 64 12.2V485c0-43.7-22.9-71.6-77.4-71.6-36.2 0-59.2 9.7-78.6 18.2l-20.6-46c24.3-13.4 63-24.3 112.6-24.3 81 0 136.7 44.8 136.7 131v312.9c-21.7 12.1-60.5 23-110.1 23M2686.4 534.7c-51 0-59.5 65.5-59.5 123.7 0 59.5 8.5 125 59.5 125 50.9 0 59.4-65.5 59.4-125 0-58.2-8.5-123.7-59.4-123.7zm-4.8 293.5c-92.2 0-138.3-70.4-138.3-169.8 0-98.3 46-168.6 138.3-168.6 92.2 0 138.2 70.3 138.2 168.6 0 99.4-46 169.8-138.2 169.8M4413 1329.6c-27.4 0-33.2-13-33.2-33v-10.2h39V1246h-39v-183h-59.1v183h-24.5v40.4h24.5v15.9c0 44.7 28.8 69.2 77.9 69.2 10 0 17.2 0 25.8-1.5v-40.4H4413M3860.2 973.7c-33.3 0-59.1 7.2-76.4 15.9l13 34.6c12.9-5.8 30.1-11.6 54.7-11.6 37.5 0 49 17.3 49 46v14.6c-7.1-4.4-21.6-10.2-46.1-10.2-54.8 0-79.3 27.4-79.3 72v151.4h59.1V1138c0-20.2 7.2-36 36-36 14.4 0 23.2 4.3 30.3 7.1v177.3h59.1v-214.7c0-70.6-41.9-98-99.5-98M3701.7 1060.2c-43.2 0-64.8 23-64.8 60.5V1246h-24.6v40.3h24.6v46.1l59 15.9v-62h36V1246h-36v-119.6c0-20.1 10.1-25.9 24.5-25.9 7.2 0 13 0 20.2 1.5v-37.5c-5.8-1.5-17.3-4.3-39-4.3M3513 1063v223.4h59V1063h-59M3390.9 1058.7c-28.9 0-51.9 7.2-69.2 15.9l14.4 37.4c11.6-5.7 27.4-13 46.2-13 21.5 0 34.5 7.3 34.5 24.5 0 16-10 23.1-36 33.2-43.3 17.3-52 43.2-52 67.7 0 36 27.5 66.3 76.5 66.3 27.3 0 47.5-7.2 63.4-15.8l-15.9-34.6a83.3 83.3 0 0 1-40.3 11.5c-20.2 0-30.2-8.6-30.2-23 0-16 15.8-21.6 36-30.3 44.6-17.3 54.7-43.2 54.7-70.6 0-40.4-33.2-69.2-82.1-69.2M3303 1246a119 119 0 0 1-52 0v-183h-59v210.4c8.6 4.4 43.2 15.9 82.2 15.9 22.9 0 28.7-1.5 37.4-2.9l-8.7-40.4M2682.8 1313.8c-21.6 0-31.7 13-31.7 28.8s10.1 28.9 31.8 28.9c20.2 0 31.6-13 31.6-28.9 0-15.8-11.4-28.8-31.7-28.8M2873.8 1063h-56.2l-76.4 223.4h63.4l28.8-105.2c3-10 10.1-36 13-49h1.4c1.4 13 8.7 39 11.5 49l30.3 105.2h59.1l-75-223.4M2652 1063v223.4h59.1V1063h-59M3543.8 1313.8c-21.6 0-31.7 13-31.7 28.8s10.1 28.9 31.7 28.9c20.2 0 31.7-13 31.7-28.9 0-15.8-11.5-28.8-31.7-28.8M2550.6 1063v157.1c0 15.9-7.1 31.7-36 31.7-14.4 0-23-2.8-30.2-5.8v-183h-59v210.4a239 239 0 0 0 92 17.3c67.9 0 92.4-33.1 92.4-70.6v-157h-59.2M2282.3 1058.7c-57.7 0-100.9 30.3-100.9 89.3v199h62v-199c0-27.3 14.4-41.7 39-41.7 24.4 0 38.8 14.4 38.8 41.7v199h62v-199c0-59-43.2-89.3-100.9-89.3M4175.7 1097.6c-30.2 0-37.4 34.6-37.4 77.8 0 41.8 7.2 76.4 37.4 76.4 30.4 0 37.6-34.6 37.6-76.4 0-43.2-7.3-77.8-37.6-77.8zm0 193.1c-66.2 0-98-49-98-115.3 0-67.7 31.8-116.7 98-116.7 66.3 0 98 49 98 116.7 0 66.3-31.7 115.3-98 115.3M3098.2 1194.1h-83.6c0 43.3 17.3 59.2 41.8 59.2 23 0 41.7-14.4 41.7-56.3zm56.2-14.3c0 70.6-36 111-96.6 111-61.9 0-99.4-43.3-99.4-115.4 0-74.9 41.8-116.7 108-116.7 34.7 0 60.6 7.2 79.3 17.3l-14.4 39c-15.8-7.3-33.1-13-59-13-27.4 0-52 11.5-56.3 54.7h138.4v23"/></g><g clip-path="url(#b)" transform="matrix(.13333 0 0 -.13333 0 249)"><path d="M0 0h1868v1867H0z" fill="url(#c)"/></g><g clip-path="url(#d)" fill="#fff" transform="matrix(.13333 0 0 -.13333 0 249)"><path d="M1261 1418c-42.3 23-82.1 41-136.5 54.3v-111A699.3 699.3 0 0 0 1261 1314v103.8M1076.2 1054.4a24.5 24.5 0 0 1-24.1-25.3l-7.3-227.1h64l-8.5 227c0 14.5-9.6 25.4-24 25.4M1133 428.9c-67.7 0-116 15.7-177.6 47-66.4 33.8-140 62.9-234.3 62.9-88.1 0-182.3-31.5-253.6-137.7 85.8 53 165.5 70 231.9 70 71.2 0 125.6-18.1 181.1-47 62.9-32.7 117.2-55.6 195.7-55.6 76.1 0 161.8 29 235.5 125.5A271.5 271.5 0 0 0 1133 429"/><path d="M747.7 1029a24.5 24.5 0 0 0 24.2 25.4 24.5 24.5 0 0 0 24.1-25.3l8.5-227.1h-64zm9.7-452.8c60.3 0 130.4-17 209-60.4v224.6l-32.7 41.1v311.6l64 99-26.6-95.4a427 427 0 0 0 55.6 3.6c62.8 0 120.7-10.8 170.3-30.2l64 59.2v160.6a783.7 783.7 0 0 1-136.5 47.1c-29 7.3-60.4 12.1-91.8 15.7v139a744.2 744.2 0 0 1-105 7.2c-33.9 0-67.7-2.4-100.3-6v-131.7a718.2 718.2 0 0 1-90.6-16.9v130.4c-52-14.5-101.4-35-146.1-60.4v-270.5l61.6-59.2-18.1-304.3-49.5-49.5V554.5l16.9-18.2c41 21.7 93 39.9 155.8 39.9"/></g></svg>
